<svg width="129" height="57" viewBox="0 0 129 57" fill="none" xmlns="http://www.w3.org/2000/svg">
<g clip-path="url(#clip0_2_4)">
<path d="M0 0C42.57 0 85.14 0 129 0C129 18.8097 129 37.6203 129 57C86.43 57 43.86 57 0 57C0 38.1903 0 19.3797 0 0Z" fill="#707070"/>
<path d="M50.179 19.6186C51.9444 19.5858 51.9444 19.5858 53.7454 19.5523C54.1137 19.5427 54.4821 19.533 54.8617 19.5231C55.1583 19.52 55.4549 19.5173 55.7515 19.515C55.9768 19.5069 55.9768 19.5069 56.2068 19.4986C57.4208 19.4976 58.084 19.88 59.0602 20.6791C59.8143 21.9279 59.8747 23.166 59.7263 24.6558C59.6302 24.9347 59.534 25.2135 59.4349 25.5009C59.3845 25.7469 59.3342 25.993 59.2823 26.2465C59.775 27.1205 59.775 27.1205 60.3924 27.8372C60.8029 28.8174 60.6892 29.9466 60.6145 31.0186C60.2442 32.3205 59.6159 33.2449 58.6162 33.9349C57.9533 34.1073 57.3163 34.0905 56.6404 34.0643C56.4759 34.063 56.3114 34.0617 56.1419 34.0603C55.5326 34.0534 54.9235 34.0349 54.3143 34.0177C52.9497 33.9904 51.585 33.963 50.179 33.9349C50.179 29.2105 50.179 24.4861 50.179 19.6186Z" fill="#F8F8F8"/>
<path d="M80.3752 19.3535C81.1812 19.3535 81.9872 19.3535 82.8176 19.3535C82.8908 20.7533 82.9641 22.1531 83.0396 23.5953C83.4059 23.2454 83.7723 22.8954 84.1497 22.5349C84.769 22.4368 85.2834 22.3976 85.8982 22.4189C86.1253 22.4161 86.1253 22.4161 86.357 22.4132C87.7455 22.4337 88.7872 22.8591 89.867 23.9433C91.0615 25.6468 91.1507 27.0952 91.1099 29.2581C90.9772 30.9168 90.5295 31.9874 89.5062 33.1064C87.9692 34.3544 86.4001 34.3834 84.5938 34.2C83.3704 33.6644 83.3704 33.6644 83.0396 32.8744C82.9663 33.2244 82.893 33.5743 82.8176 33.9349C82.0116 33.9349 81.2056 33.9349 80.3752 33.9349C80.3752 29.123 80.3752 24.3112 80.3752 19.3535Z" fill="#F7F7F7"/>
<path d="M14.8761 19.6186C16.4285 19.5858 16.4285 19.5858 18.0123 19.5523C18.3363 19.5427 18.6603 19.533 18.9942 19.5231C19.2523 19.5204 19.5104 19.5178 19.7764 19.5151C20.1705 19.5067 20.1705 19.5067 20.5727 19.4982C21.4745 19.6445 21.9426 20.0031 22.6472 20.6791C23.3382 21.9169 23.2256 23.2064 23.0912 24.6558C22.8608 25.3604 22.646 25.6866 22.2031 26.2465C22.0565 26.2465 21.91 26.2465 21.759 26.2465C21.759 26.4215 21.759 26.5965 21.759 26.7768C22.0063 26.8014 22.0063 26.8014 22.2586 26.8265C23.0577 27.1084 23.2952 27.5594 23.7573 28.3675C24.17 29.353 24.0762 30.4732 23.9793 31.5489C23.5039 32.7977 23.0192 33.2663 21.9638 33.7764C21.2808 34.0301 20.6398 34.0235 19.9281 34.0126C19.6616 34.0106 19.395 34.0086 19.1203 34.0066C18.7867 33.9993 18.4531 33.9921 18.1094 33.9846C17.0424 33.9682 15.9754 33.9518 14.8761 33.9349C14.8761 29.2105 14.8761 24.4862 14.8761 19.6186Z" fill="#ECECEC"/>
<path d="M66.2624 22.4686C66.5506 22.4618 66.8388 22.4549 67.1358 22.4479C68.0417 22.5457 68.6268 22.823 69.2737 23.5954C69.3469 23.2454 69.4202 22.8955 69.4957 22.5349C70.3017 22.5349 71.1076 22.5349 71.938 22.5349C71.938 26.2969 71.938 30.0589 71.938 33.9349C71.1321 33.9349 70.3261 33.9349 69.4957 33.9349C69.4957 33.5849 69.4957 33.235 69.4957 32.8744C69.3492 32.8744 69.2026 32.8744 69.0516 32.8744C69.0516 33.0494 69.0516 33.2244 69.0516 33.4047C67.37 34.43 65.7998 34.4306 63.9761 33.8862C62.855 33.3757 62.1656 32.4755 61.5165 31.3003C60.9588 29.4357 60.9561 26.8345 61.6275 25.0204C62.2059 23.8923 63.0665 23.0741 64.1123 22.6374C64.8312 22.4896 65.5333 22.479 66.2624 22.4686Z" fill="#F9F9F9"/>
<path d="M99.9556 22.9326C101.141 23.6996 101.935 25.0024 102.356 26.5116C102.356 27.2115 102.356 27.9115 102.356 28.6326C99.6453 28.6326 96.9343 28.6326 94.1411 28.6326C94.7069 30.1593 94.7069 30.1593 95.6953 31.0186C96.2827 31.1341 96.2827 31.1341 96.9026 31.1015C97.2113 31.0999 97.2113 31.0999 97.5262 31.0984C98.1772 31.0135 98.6629 30.837 99.2478 30.4884C99.3211 30.3134 99.3944 30.1384 99.4699 29.9581C100.349 29.9581 101.228 29.9581 102.134 29.9581C101.879 31.4792 101.548 32.1446 100.58 33.1395C98.901 34.3772 96.9104 34.5796 94.9989 34.0747C93.8572 33.5631 92.7735 32.5846 92.1194 31.351C91.4972 29.6733 91.4239 27.6374 91.8523 25.883C92.4022 24.4296 93.2075 23.4984 94.4022 22.771C96.0267 22.1593 98.3542 22.1939 99.9556 22.9326Z" fill="#F7F7F7"/>
<path d="M114.651 22.4023C114.819 22.4034 114.986 22.4046 115.158 22.4057C116.846 22.4676 117.722 23.1003 118.884 24.5232C119.244 25.2121 119.339 25.7207 119.453 26.5116C118.629 26.5891 117.832 26.6304 117.01 26.5116C116.636 26.0752 116.266 25.6335 115.9 25.186C115.005 25.0255 114.058 24.9601 113.236 25.4512C113.309 25.8011 113.382 26.1511 113.458 26.5116C114.418 26.8089 115.367 27.0715 116.344 27.2738C117.391 27.5188 118.347 27.9055 119.231 28.6325C119.831 29.7084 119.815 30.552 119.675 31.8139C119.232 32.9476 118.596 33.294 117.663 33.7526C115.705 34.5182 113.772 34.494 111.904 33.4046C110.999 32.7304 110.404 32.0105 110.127 30.7535C110.127 30.491 110.127 30.2285 110.127 29.9581C110.951 29.8818 111.748 29.8389 112.57 29.9581C113.111 30.6044 113.111 30.6044 113.458 31.2837C114.454 31.8358 115.986 31.6913 117.01 31.2837C116.937 30.9338 116.864 30.5838 116.788 30.2232C116.571 30.1781 116.354 30.133 116.13 30.0865C111.936 29.1764 111.936 29.1764 110.793 27.5721C110.518 26.5859 110.452 25.6804 110.571 24.6558C111.494 22.7501 112.938 22.3849 114.651 22.4023Z" fill="#F7F7F7"/>
<path d="M72.8262 22.5349C73.6321 22.5349 74.4381 22.5349 75.2685 22.5349C75.3418 23.0598 75.4151 23.5847 75.4905 24.1256C75.7928 23.8057 75.7928 23.8057 76.1011 23.4794C76.9717 22.558 77.7376 22.5004 78.8765 22.5183C79.2245 22.5238 79.5726 22.5293 79.9312 22.5349C79.9312 23.4098 79.9312 24.2847 79.9312 25.186C79.7383 25.2089 79.5453 25.2318 79.3466 25.2554C77.7963 25.4811 76.7756 25.6316 75.7126 27.0419C75.427 27.7238 75.4438 28.2532 75.4203 29.0157C75.411 29.3011 75.4017 29.5865 75.3921 29.8805C75.379 30.329 75.379 30.329 75.3657 30.7866C75.3561 31.0877 75.3465 31.3888 75.3366 31.699C75.313 32.4443 75.2906 33.1896 75.2685 33.9349C74.4625 33.9349 73.6566 33.9349 72.8262 33.9349C72.8262 30.1729 72.8262 26.4109 72.8262 22.5349Z" fill="#F7F7F7"/>
<path d="M103.022 22.5349C103.828 22.5349 104.634 22.5349 105.465 22.5349C105.538 23.0598 105.611 23.5847 105.687 24.1256C105.847 23.9615 106.007 23.7975 106.172 23.6285C107.492 22.4383 108.513 22.4835 110.127 22.5349C110.127 23.4098 110.127 24.2846 110.127 25.186C109.967 25.1929 109.806 25.1997 109.64 25.2068C108.31 25.2999 107.381 25.4065 106.353 26.5116C105.788 27.4647 105.6 28.1381 105.573 29.3005C105.565 29.5714 105.557 29.8422 105.549 30.1212C105.542 30.5408 105.542 30.5408 105.534 30.9689C105.527 31.2537 105.519 31.5386 105.511 31.8321C105.493 32.5329 105.478 33.2339 105.465 33.9349C104.659 33.9349 103.853 33.9349 103.022 33.9349C103.022 30.1729 103.022 26.4109 103.022 22.5349Z" fill="#F5F5F5"/>
<path d="M15.7642 27.307C16.7403 27.2784 17.7159 27.2573 18.6922 27.2407C18.9688 27.2318 19.2455 27.2229 19.5305 27.2138C19.9308 27.2086 19.9308 27.2086 20.3392 27.2034C20.7072 27.1951 20.7072 27.1951 21.0827 27.1866C21.9129 27.3344 22.2734 27.6765 22.8692 28.3674C23.2235 29.2135 23.1756 30.098 23.0912 31.0186C22.7278 31.9692 22.494 32.2893 21.759 32.8744C21.1331 32.9346 21.1331 32.9346 20.3826 32.9262C20.1143 32.9245 19.846 32.9228 19.5695 32.921C19.149 32.9144 19.149 32.9144 18.72 32.9076C18.4371 32.9052 18.1541 32.9028 17.8626 32.9003C17.1631 32.894 16.4637 32.8845 15.7642 32.8744C15.7642 31.0372 15.7642 29.1999 15.7642 27.307Z" fill="#707070"/>
<path d="M15.5422 20.414C16.3703 20.3925 17.198 20.3767 18.0261 20.3643C18.2604 20.3576 18.4947 20.3509 18.736 20.3441C19.0763 20.3402 19.0763 20.3402 19.4234 20.3363C19.6315 20.3321 19.8396 20.328 20.0541 20.3237C20.9995 20.4672 21.5798 20.9362 22.1615 21.8224C22.4816 22.6876 22.5373 23.1877 22.4251 24.1256C21.9504 25.1784 21.5866 25.8185 20.6489 26.2465C20.0793 26.3067 20.0793 26.3067 19.4451 26.2983C19.1038 26.2957 19.1038 26.2957 18.7556 26.2931C18.5194 26.2887 18.2833 26.2842 18.04 26.2797C17.6807 26.2761 17.6807 26.2761 17.3141 26.2724C16.7234 26.2662 16.1328 26.2567 15.5422 26.2465C15.5422 24.3218 15.5422 22.397 15.5422 20.414Z" fill="#707070"/>
<path d="M67.7194 25.186C68.4526 25.6161 68.8678 25.9572 69.3569 26.727C69.6286 27.8626 69.6287 28.8134 69.2182 29.8919C68.6324 30.7911 68.2277 31.2353 67.2624 31.3987C66.891 31.3992 66.891 31.3992 66.5122 31.3997C66.2652 31.4048 66.0182 31.41 65.7637 31.4152C64.9116 31.2571 64.5484 30.9465 63.9449 30.2233C63.6438 29.1446 63.575 28.1685 63.7229 27.0419C64.6579 25.0297 65.9518 24.9687 67.7194 25.186Z" fill="#707070"/>
<path d="M87.3414 25.5174C88.2829 26.2669 88.2829 26.2669 88.5904 27.0418C88.7205 28.1926 88.6954 29.133 88.3128 30.2067C87.7478 31.0018 87.2793 31.2453 86.4134 31.3821C84.346 31.4355 84.346 31.4355 83.553 30.6706C82.9506 29.8347 82.8343 29.3746 82.7482 28.2846C82.8308 27.1208 83.0825 26.605 83.7057 25.7163C84.8589 24.8693 86.1045 24.9704 87.3414 25.5174Z" fill="#707070"/>
<path d="M38.9942 22.9326C39.6634 23.7737 40.0413 24.6505 40.4096 25.7163C39.9101 25.8157 39.9101 25.8157 39.2995 25.7163C38.8277 24.9375 38.8277 24.9375 38.4114 24.1256C37.6742 23.8322 37.0918 23.8068 36.3159 23.7942C36.0644 23.7874 35.8128 23.7805 35.5536 23.7735C34.7995 23.8679 34.4981 24.017 33.9707 24.6558C33.8412 25.3186 33.8412 25.3186 33.9707 25.9814C34.4617 26.7189 34.9376 26.9536 35.6828 27.2231C35.9876 27.3377 35.9876 27.3377 36.2986 27.4546C36.7246 27.6096 37.1508 27.7642 37.577 27.9185C38.6819 28.3345 39.5709 28.6895 40.4096 29.693C40.7538 30.515 40.696 31.1721 40.6317 32.0791C40.1895 33.0891 39.6956 33.4908 38.8277 33.8852C37.3974 34.3767 36.1006 34.4141 34.6785 33.8852C33.7791 33.2746 33.0329 32.6646 32.6802 31.466C32.6664 31.3184 32.6527 31.1707 32.6385 31.0186C33.7179 31.1291 34.1404 31.6818 34.8589 32.6093C36.2229 33.4237 38.1216 32.7964 39.5215 32.3442C39.6299 31.1214 39.6299 31.1214 39.2386 30.0508C38.8242 29.6639 38.5177 29.5137 38.0115 29.3534C37.8494 29.2997 37.6872 29.246 37.5202 29.1908C37.3518 29.1378 37.1833 29.0848 37.0098 29.0302C33.7417 27.9865 33.7417 27.9865 32.8606 26.2465C32.6803 25.1222 32.8065 24.7518 33.3463 23.7942C34.8091 22.0863 37.1556 22.0241 38.9942 22.9326Z" fill="#EDEDED"/>
<path d="M41.5198 19.3535C41.8129 19.3535 42.106 19.3535 42.4079 19.3535C42.4812 22.678 42.5545 26.0026 42.6299 29.4279C44.8559 26.6257 44.8559 26.6257 46.9283 23.643C47.2093 23.1977 47.2093 23.1977 47.7367 22.5349C48.3247 22.4935 48.3247 22.4935 48.8468 22.5349C47.7794 24.3431 46.5541 25.9549 45.2943 27.5721C45.5944 28.3489 45.9386 28.9711 46.3975 29.6267C46.5243 29.8099 46.6511 29.9931 46.7818 30.1818C46.9137 30.3705 47.0456 30.5591 47.1816 30.7535C47.4437 31.1283 47.7051 31.5038 47.9656 31.8802C48.0814 32.0456 48.1972 32.211 48.3165 32.3815C48.6274 32.8786 48.8516 33.3725 49.0688 33.9349C48.591 34.0457 48.591 34.0457 47.9587 33.9349C47.493 33.352 47.1144 32.8096 46.7236 32.1619C46.5676 31.913 46.5676 31.913 46.4084 31.6591C46.2046 31.3341 46.002 31.0079 45.8007 30.6806C45.4232 30.0734 45.0276 29.4845 44.6282 28.8977C43.7231 29.298 43.0723 30.004 42.6299 31.0186C42.4754 31.9906 42.4241 32.9467 42.4079 33.9349C42.1148 33.9349 41.8218 33.9349 41.5198 33.9349C41.5198 29.123 41.5198 24.3112 41.5198 19.3535Z" fill="#E6E6E6"/>
<path d="M24.8675 22.5349C25.1605 22.5349 25.4536 22.5349 25.7556 22.5349C25.8289 23.0598 25.9021 23.5848 25.9776 24.1256C26.1379 23.9616 26.2982 23.7975 26.4633 23.6285C27.4632 22.7265 28.2404 22.4658 29.4885 22.5018C29.8135 22.5089 29.8135 22.5089 30.145 22.5163C30.3085 22.5224 30.4719 22.5286 30.6403 22.5349C30.6403 22.8848 30.6403 23.2348 30.6403 23.5954C30.3711 23.6102 30.3711 23.6102 30.0965 23.6254C29.8592 23.6428 29.6219 23.6603 29.3775 23.6782C29.1431 23.6936 28.9087 23.709 28.6671 23.7248C27.8657 23.8821 27.4847 24.0222 26.8657 24.6558C25.8234 26.4869 25.833 28.4939 25.8111 30.6375C25.8045 30.9555 25.7979 31.2735 25.7911 31.6011C25.7756 32.3791 25.7638 33.1568 25.7556 33.9349C25.4625 33.9349 25.1694 33.9349 24.8675 33.9349C24.8675 30.1729 24.8675 26.4109 24.8675 22.5349Z" fill="#E9E9E9"/>
<path d="M52.6213 28.1023C53.4262 28.0881 54.231 28.0775 55.0359 28.0692C55.2652 28.0648 55.4944 28.0603 55.7306 28.0557C55.9496 28.054 56.1685 28.0523 56.3941 28.0506C56.6976 28.0464 56.6976 28.0464 57.0072 28.0421C57.506 28.1023 57.506 28.1023 57.9501 28.6326C58.0056 29.5605 58.0056 29.5605 57.9501 30.4884C57.506 31.0186 57.506 31.0186 57.0072 31.0788C56.8049 31.076 56.6026 31.0733 56.3941 31.0704C56.1752 31.0687 55.9562 31.067 55.7306 31.0652C55.3868 31.0586 55.3868 31.0586 55.0359 31.0518C54.805 31.0494 54.574 31.047 54.336 31.0445C53.7644 31.0382 53.1929 31.0287 52.6213 31.0186C52.6213 30.0562 52.6213 29.0939 52.6213 28.1023Z" fill="#707070"/>
<path d="M52.8434 22.2698C53.4633 22.2555 54.0829 22.2449 54.7029 22.2366C54.8792 22.2322 55.0555 22.2277 55.2371 22.2231C55.6976 22.2185 56.158 22.2424 56.6179 22.2698C57.062 22.8 57.062 22.8 57.1175 23.5788C57.062 24.3907 57.062 24.3907 56.6179 25.186C55.9628 25.2446 55.3559 25.2604 54.7029 25.2357C54.5249 25.2322 54.3468 25.2286 54.1634 25.2249C53.7233 25.2155 53.2833 25.2012 52.8434 25.186C52.8434 24.2237 52.8434 23.2613 52.8434 22.2698Z" fill="#707070"/>
<path d="M31.0843 22.5349C31.3774 22.5349 31.6705 22.5349 31.9725 22.5349C31.9725 26.2969 31.9725 30.0589 31.9725 33.9349C31.6794 33.9349 31.3863 33.9349 31.0843 33.9349C31.0843 30.1729 31.0843 26.4109 31.0843 22.5349Z" fill="#E4E4E4"/>
<path d="M97.9157 25.186C99.159 25.7693 99.159 25.7693 99.4699 26.5116C97.8579 26.5116 96.246 26.5116 94.5852 26.5116C95.7462 25.1253 96.3343 25.0023 97.9157 25.186Z" fill="#707070"/>
<path d="M30.8623 19.3535C31.2287 19.3535 31.595 19.3535 31.9725 19.3535C31.9725 19.7909 31.9725 20.2284 31.9725 20.6791C31.6061 20.6791 31.2398 20.6791 30.8623 20.6791C30.8623 20.2416 30.8623 19.8042 30.8623 19.3535Z" fill="#909090"/>
</g>
<defs>
<clipPath id="clip0_2_4">
<rect width="129" height="57" fill="white"/>
</clipPath>
</defs>
</svg>
