<svg width="269" height="325" viewBox="0 0 269 325" fill="none" xmlns="http://www.w3.org/2000/svg">
<path d="M201.5 528.73C188.94 532.25 176.3 534.93 163.26 535.4C152.36 535.79 141.63 534.88 131.36 530.86C125.809 528.864 120.71 525.784 116.36 521.8C113.237 518.976 111.289 515.082 110.9 510.89C108.66 487.89 106.17 464.89 103.76 441.89C102 425.07 100.19 408.26 98.45 391.44C96.7567 375.04 95.09 358.64 93.45 342.24C93.4518 341.341 93.2052 340.459 92.7376 339.692C92.27 338.924 91.5995 338.301 90.8 337.89C86.44 335.47 84.23 329.7 87.59 324.89C87.9527 324.426 88.1855 323.874 88.2645 323.291C88.3436 322.707 88.2661 322.114 88.04 321.57C87.21 319.37 86.49 317.12 85.62 314.93C82.2867 306.577 78.9534 298.243 75.62 289.93C74.03 285.93 72.49 281.93 70.75 278.07C70.3262 277.269 70.1047 276.376 70.1047 275.47C70.1047 274.564 70.3262 273.671 70.75 272.87C72.2251 269.758 73.0324 266.372 73.12 262.93C73.44 257.05 70.97 252.24 66.72 248.44C64.4696 246.474 61.984 244.794 59.3201 243.44C57.811 242.63 56.5022 241.493 55.4896 240.112C54.477 238.731 53.7862 237.141 53.4679 235.458C53.1495 233.775 53.2117 232.043 53.6499 230.387C54.088 228.732 54.891 227.195 56 225.89C56.8487 224.967 57.4747 223.862 57.83 222.66C58.3197 220.221 59.6331 218.025 61.55 216.44C63.1533 215.163 64.223 213.334 64.55 211.31C67.1022 200.301 66.9753 188.84 64.18 177.89C62.2863 170.623 59.27 163.697 55.2401 157.36C47.3734 145.113 39.3734 132.95 31.2401 120.87C23.2401 108.94 15.15 97.08 9.24004 83.94C3.60004 71.36 -0.629954 58.34 0.110046 44.25C0.580046 35.25 3.73004 27.14 8.46004 19.57C10.18 16.81 13.17 15.84 15.87 14.72C22.99 11.79 30.1401 8.83998 37.4901 6.58998C45.5354 3.99014 53.7609 1.98475 62.1001 0.589976C65.1753 0.0215834 68.3524 0.526406 71.1001 2.01998C76.4562 4.73524 81.3935 8.20752 85.76 12.33C91.35 17.88 95.1 24.55 98.04 31.74C103.75 45.68 106.29 60.3 106.9 75.25C107.41 87.66 107.49 100.08 107.76 112.5C108.02 124.69 108.11 136.89 109.9 149C111.823 162.123 117.621 174.373 126.55 184.18C128.04 185.86 129.63 187.45 131.2 189.06C133.2 191.06 135.35 192.6 138.41 192.67C139.805 192.732 141.146 193.225 142.25 194.08C144.356 195.698 146.723 196.943 149.25 197.76C150.696 198.342 152.003 199.222 153.086 200.344C154.168 201.466 155.001 202.803 155.531 204.269C156.06 205.735 156.274 207.297 156.159 208.851C156.043 210.406 155.601 211.918 154.86 213.29C153.059 216.581 151.872 220.173 151.36 223.89C150.36 230.73 153.01 236.02 157.75 240.55C158.889 241.694 160.158 242.701 161.53 243.55C162.597 244.157 163.521 244.986 164.239 245.982C164.956 246.977 165.451 248.116 165.69 249.32C166.95 254.52 168.4 259.67 169.75 264.84C171.343 270.947 172.923 277.057 174.49 283.17C175.39 286.69 176.29 290.17 177.11 293.75C177.26 294.428 177.546 295.069 177.952 295.633C178.358 296.197 178.874 296.672 179.47 297.03C184.17 300.1 185.47 304.1 183.04 309.12C182.13 311.01 182.59 312.28 183.47 313.86C193.51 331.787 203.51 349.733 213.47 367.7C221.03 381.167 228.54 394.65 236 408.15C245.453 425.31 254.887 442.48 264.3 459.66C264.52 460.147 264.774 460.618 265.06 461.07C269.22 466.6 268.43 472.59 266.45 478.54C263.65 486.96 258.45 493.9 252.26 500.09C243.09 509.19 232.32 515.9 220.55 521.09C214.27 523.79 207.85 526.18 201.5 528.73ZM35.1001 19.78C33.2401 19.63 33.1 20.78 32.83 21.78C31.3635 27.0546 30.9591 32.5678 31.64 38C32.2236 42.5578 33.0514 47.081 34.12 51.55C35.7307 59.429 38.4547 67.0387 42.2101 74.15C43.9401 77.34 45.68 80.51 47.39 83.71C51.39 91.23 54.9 99.1 59.56 106.2C69.14 120.8 77.91 135.85 86.06 151.26C89.236 157.206 91.8474 163.436 93.86 169.87C96.59 178.74 98.4201 187.87 100.69 196.87C101.03 198.22 101.08 199.87 103.18 200.48C105.35 196.81 102.39 193.17 103.18 189.41C103.52 189.78 103.78 189.95 103.87 190.19C104.73 192.38 105.55 194.58 106.4 196.77C106.77 197.77 106.96 199.11 108.4 198.71C109.84 198.31 109.26 196.97 109.22 195.97C109.18 194.97 108.97 193.97 108.79 192.71C111.13 194.07 111.45 197.42 114.43 197.27C115.34 195.94 114.43 195.12 113.96 194.21C112.605 191.641 111.272 189.061 109.96 186.47L110.7 185.94L113.56 189.09C115.29 190.98 117.01 192.9 118.79 194.74C119.46 195.43 120.29 196.03 121.55 194.74C121.074 193.882 120.536 193.06 119.94 192.28C114.845 186.346 110.567 179.758 107.22 172.69C104.202 166.205 102.082 159.338 100.92 152.28C99.436 144.513 98.6595 136.627 98.6001 128.72C98.6001 122.84 98.6 116.96 98.54 111.09C98.4867 105.537 98.3967 99.9833 98.2701 94.43C98.0701 86.43 97.9501 78.43 97.55 70.38C97.09 61.03 94.8 51.98 91.9601 43.13C90.0611 37.1073 87.2629 31.4063 83.66 26.22C80.264 21.4012 76.1807 17.1056 71.54 13.47C69.8749 12.3686 68.1224 11.4054 66.3 10.59C66.3 13.05 67.87 13.69 68.98 14.46C72.84 17.12 75.67 20.71 78.58 24.28C82.28 28.82 84.58 34.13 87.12 39.28C88.17 41.46 88.33 44.08 88.94 46.71C88.3 46.54 88.0201 46.55 87.94 46.43C87.5444 45.9166 87.2089 45.3597 86.94 44.77C84.94 39.52 81.94 34.9 78.94 30.17C74.72 23.4 68.83 18.3 62.94 13.17C62.16 12.49 61.23 11.37 59.78 12.28C59.59 13.94 60.97 14.71 61.89 15.6C65.2064 18.9593 67.9977 22.7991 70.17 26.99C70.385 27.5977 70.5032 28.2355 70.5201 28.88C68.561 27.3046 66.7592 25.543 65.14 23.62C63.5814 21.7197 61.9118 19.9133 60.14 18.21C58.37 16.67 57.47 14.05 54.31 13.37C54.2281 14.2351 54.2719 15.1075 54.44 15.96C55.14 17.74 56.13 19.41 56.83 21.2C57.53 22.99 57.96 24.7 58.5201 26.46L57.78 26.83C56.45 24.83 55.1 22.9 53.78 20.91C52.46 18.92 51.78 16.5 49.16 14.63C48.9414 15.6796 48.8242 16.7479 48.81 17.82C49.24 21.64 49.86 25.44 50.26 29.27C50.5 31.59 51.62 33.88 50.55 36.99C49.8238 35.7329 49.1727 34.434 48.6001 33.1C47.1645 28.7223 46.3236 24.1716 46.1001 19.57C46.0201 18.31 46.21 16.99 44.2 16.57C42.94 20.77 43.55 24.93 43.76 29.01C43.97 33.09 44.67 37.29 45.29 41.41C45.91 45.53 46.6601 49.41 47.3501 53.41L46.64 53.61C45.9172 52.573 45.2976 51.4677 44.79 50.31C43.68 46.97 42.66 43.59 41.79 40.18C41.245 38.1191 40.91 36.0083 40.79 33.88C40.56 29.19 40.58 24.49 40.44 19.79C40.2724 18.9221 40.0143 18.0741 39.67 17.26C39.04 18.43 38.57 18.93 38.5201 19.46C38.1301 24.15 37.3301 28.87 37.5201 33.54C37.9912 43.3874 40.1246 53.0842 43.83 62.22C45.64 66.67 47.83 70.98 49.76 75.36C50.24 76.43 50.63 77.54 51.06 78.63C48.1896 75.7457 45.8774 72.3553 44.2401 68.63C39.8344 59.6998 36.7232 50.1876 35 40.38C34.1302 35.7655 33.9482 31.0477 34.4601 26.38C34.7801 24.29 34.8901 22.18 35.1001 19.78ZM166.1 298.35C166.337 297.817 166.466 297.243 166.48 296.66C165.97 293.93 165.42 291.2 164.74 288.5C162.367 279.06 159.96 269.627 157.52 260.2C157.04 258.34 156.52 256.5 155.93 254.66C155.65 253.66 155.35 252.66 156.6 252.23C157.85 251.8 158.5 252.8 158.83 253.93C159.39 255.93 160.05 257.82 160.52 259.8C161.52 263.74 162.25 267.72 163.26 271.65C164.67 277.14 166.2 282.65 167.7 288.08C168.44 290.77 169.13 293.47 170.03 296.08C170.24 296.68 171.26 297.01 171.9 297.46C172.35 296.81 173.08 296.19 173.17 295.46C173.132 294.608 172.936 293.77 172.59 292.99C171.59 289.38 170.52 285.78 169.59 282.15C167.17 272.72 164.95 263.24 162.37 253.85C160.8 248.14 161.72 247.6 154.68 249.05C144.86 251.05 135.07 253.41 125.48 256.31C113.18 260.03 101.06 264.31 88.94 268.62C84.9397 270.141 81.0387 271.911 77.26 273.92C74.93 275.09 74.86 275.64 75.55 278.03C75.7223 278.65 75.9259 279.261 76.16 279.86C78.5701 285.8 81.01 291.73 83.41 297.68C86.3234 304.927 89.2134 312.183 92.08 319.45C92.5201 320.57 92.89 321.7 94.44 321.6C95.6001 320.7 95.44 319.67 94.94 318.46C93.1067 314.013 91.32 309.547 89.58 305.06C88.3 301.77 87.23 298.39 85.89 295.13C83.89 290.19 81.66 285.31 79.56 280.4C79.12 279.4 78.6401 278.29 79.91 277.03C80.3149 277.697 80.6789 278.389 81 279.1C82.64 283.28 84.2 287.5 85.87 291.67C89.0967 299.71 92.3567 307.737 95.65 315.75C96.0244 316.75 96.5251 317.697 97.14 318.57C97.3453 318.786 97.6003 318.948 97.8828 319.042C98.1652 319.136 98.4664 319.159 98.76 319.11C98.9923 318.942 99.179 318.719 99.303 318.46C99.427 318.202 99.4844 317.916 99.47 317.63C99.2688 316.577 98.9571 315.548 98.54 314.56C97.54 311.95 96.54 309.35 95.54 306.76C93.1067 300.6 90.6634 294.447 88.2101 288.3C86.8601 284.93 85.35 281.61 84.11 278.2C82.87 274.79 83.4501 273.63 86.94 272.56C89.2001 271.87 90.03 272.19 90.94 274.39C92.71 278.51 94.49 282.64 96.12 286.82C99.54 295.59 102.87 304.39 106.24 313.18C106.401 313.799 106.694 314.376 107.1 314.87C107.317 315.069 107.577 315.214 107.86 315.296C108.143 315.377 108.44 315.392 108.73 315.34C108.964 315.16 109.15 314.926 109.272 314.657C109.394 314.389 109.448 314.094 109.43 313.8C109.24 312.743 108.935 311.71 108.52 310.72C106.76 306.013 104.983 301.313 103.19 296.62C101.37 291.82 99.55 287.02 97.69 282.24C96.4501 279.05 95.06 275.92 93.86 272.72C93.55 271.89 93.37 270.29 93.73 270.08C94.9783 269.34 96.3823 268.901 97.83 268.8C98.46 268.8 99.47 269.8 99.78 270.55C101.24 274.11 102.54 277.73 103.87 281.35C107.483 291.197 111.087 301.047 114.68 310.9C115.08 312.01 115.68 312.8 116.97 312.67C117.97 310.92 118.1 310.88 117.6 309.51C116.69 307 115.6 304.56 114.6 302.06C112.82 297.24 111.087 292.407 109.4 287.56C108.1 283.82 106.95 280.04 105.63 276.31C104.81 274 103.78 271.76 102.87 269.47C102.38 268.24 102.42 266.97 103.79 266.47C105.16 265.97 105.55 267.27 105.86 268.31C106.4 270.15 106.8 272.03 107.43 273.84C110.33 282.12 113.267 290.39 116.24 298.65C117.4 301.87 118.66 305.05 119.91 308.24C120.4 309.49 121.11 310.52 122.81 310.29C123.81 308.71 123.24 307.18 122.75 305.69C120.08 297.69 117.46 289.61 114.68 281.62C113.14 277.18 111.29 272.85 109.68 268.45C109.22 267.22 108.25 265.98 109.29 264.59C111.02 264.28 111.29 265.52 111.69 266.59C113.257 271.143 114.813 275.703 116.36 280.27C118.73 287.27 121.08 294.27 123.47 301.27C124.13 303.311 124.901 305.314 125.78 307.27C126.07 307.89 127.03 308.2 127.68 308.65C128.05 307.96 128.68 307.27 128.68 306.57C128.574 305.401 128.353 304.246 128.02 303.12C127.76 301.79 127.51 300.46 127.26 299.12L127.91 298.91C128.84 301.01 129.78 303.11 130.69 305.22C131.13 306.22 131.64 307.3 132.95 307.06C134.26 306.82 134.28 305.63 134.28 304.52C134.28 303.41 133.53 302.26 134.77 301.05C135.345 302.216 136.013 303.333 136.77 304.39C137.22 304.93 138.13 305.09 138.83 305.39C139.137 304.756 139.356 304.083 139.48 303.39C139.54 302.29 139.01 301.11 140.24 299.96C140.76 300.81 141.24 301.49 141.6 302.23C142.06 303.16 142.6 303.94 143.79 303.67C144.98 303.4 145 302.32 145.08 301.35C145.16 300.38 145.23 299.41 145.31 298.35C147.53 299.2 146.7 302.47 149.77 302.35C150.086 301.544 150.327 300.71 150.49 299.86C150.59 299 149.93 297.95 151.42 297.36C151.726 298.159 152.129 298.918 152.62 299.62C153.224 300.129 153.898 300.55 154.62 300.87C155.021 300.287 155.337 299.651 155.56 298.98C155.73 298.05 154.88 296.85 156.48 296.22C156.78 296.7 157.08 297.12 157.31 297.58C157.78 298.58 158.23 299.76 159.56 299.4C161.16 298.96 160.56 297.52 160.5 296.4C160.44 295.66 160.16 294.94 160.07 294.2C159.84 292.39 159.66 290.58 159.45 288.77L160.13 288.63C160.33 289.05 160.54 289.47 160.72 289.9C161.72 292.27 162.66 294.64 163.61 297.03C163.656 297.297 163.763 297.55 163.922 297.769C164.081 297.989 164.288 298.169 164.527 298.296C164.767 298.424 165.032 298.495 165.303 298.504C165.573 298.513 165.843 298.461 166.09 298.35H166.1ZM115.29 248.28L115.88 248.09C116.53 249.37 117.16 250.67 117.88 251.92C118.48 253.01 119.34 253.99 120.67 253.57C122 253.15 121.93 252.01 121.78 250.86C121.63 249.71 121.58 248.54 121.48 247.38C121.795 247.448 122.092 247.58 122.352 247.77C122.612 247.959 122.829 248.201 122.99 248.48C123.35 249.13 123.49 249.98 123.99 250.48C124.719 251.035 125.511 251.502 126.35 251.87C126.893 251.157 127.315 250.36 127.6 249.51C127.711 248.152 127.711 246.788 127.6 245.43C129.79 246.74 129.5 250.17 132.3 250.31C134.84 248.45 132.19 246.03 133.36 243.59L135.47 246.7C136.24 247.83 136.93 249.48 138.63 248.58C140.18 247.76 139.1 246.3 138.84 245.12C138.58 243.94 137.84 242.62 138.76 240.93C139.58 241.93 140.15 242.64 140.76 243.33C141.713 244.484 142.738 245.577 143.83 246.6C144.28 246.99 145.14 246.9 145.83 247.03C145.89 246.35 146.21 245.56 145.98 245.03C145.21 243.16 144.19 241.39 143.37 239.53C140.75 233.64 139.98 227.39 140.03 221.03C140.03 218.64 141.57 217.83 144.36 218.52C144.271 219.999 144.097 221.471 143.84 222.93C142.84 227.4 143.69 231.66 145.16 235.83C146.305 239.197 148.263 242.23 150.86 244.66C152.41 246.09 153.3 245.88 154.69 243.9C146 235.76 145.31 225.78 148.8 215.22C147.07 213.68 145.4 214.36 143.93 214.7C134.67 216.87 125.35 218.9 116.21 221.51C106.63 224.24 97.2101 227.41 87.7701 230.71C81.3201 232.97 75.05 235.71 68.7701 238.39C67.4501 239.1 66.1923 239.919 65.01 240.84C66.42 242.09 67.41 243 68.44 243.84C75.51 249.84 78.6001 257.42 77.44 266.67C77.3105 267.077 77.2563 267.504 77.28 267.93C77.5139 268.54 77.8052 269.126 78.15 269.68C78.8622 269.284 79.4545 268.704 79.8646 268C80.2746 267.296 80.4872 266.495 80.48 265.68C81.16 257.63 79.48 250.36 73.53 244.46C72.53 243.46 71.53 242.41 70.53 241.29C71.12 241 71.33 240.81 71.53 240.85C71.9428 240.932 72.3385 241.085 72.7 241.3C77.78 244.59 80.23 249.68 81.6301 255.24C82.4 258.31 82.3801 261.59 82.6301 264.78C82.7001 265.78 82.93 266.69 83.93 266.56C84.53 266.48 85.1501 265.56 85.4901 264.89C85.7018 264.279 85.7433 263.622 85.61 262.99C85.3851 260.011 84.9743 257.048 84.3801 254.12C83.3576 249.491 81.1368 245.211 77.94 241.71C77.1816 240.815 76.4706 239.88 75.81 238.91C77.26 238.14 78.32 237.48 79.45 237C82.14 235.87 82.6101 236 84.1301 238.48C88.1359 244.967 90.8902 252.148 92.25 259.65C92.43 260.65 92.25 261.93 93.79 262.2C94.3262 261.962 94.7589 261.539 95.0086 261.008C95.2584 260.478 95.3086 259.875 95.15 259.31C94.66 256.58 94.15 253.85 93.42 251.18C92.1212 246.201 90.0095 241.471 87.17 237.18C86.79 236.62 86.48 235.3 86.65 235.18C87.9923 234.385 89.4132 233.732 90.89 233.23C92 232.86 92.7 233.72 93.11 234.64C94.47 237.64 95.97 240.64 97.11 243.76C98.71 248.29 99.98 252.93 101.49 257.49C101.71 258.15 102.49 258.6 103.09 259.15C103.543 258.522 103.935 257.853 104.26 257.15C104.393 256.627 104.362 256.075 104.17 255.57C102.52 250.49 100.91 245.39 99.17 240.36C98.46 238.36 97.27 236.53 96.42 234.57C95.9 233.36 95.2001 231.97 97.2701 230.78C98.114 231.838 98.873 232.962 99.54 234.14C102.616 240.349 104.997 246.879 106.64 253.61C106.94 254.97 107 256.7 109.36 257.19C109.755 256.296 110.018 255.35 110.14 254.38C110.113 252.883 109.884 251.396 109.46 249.96C107.62 243.82 105.98 237.58 102.3 232.17C101.944 231.813 101.731 231.337 101.703 230.834C101.676 230.33 101.835 229.834 102.15 229.44C104.05 230.2 104.47 232.03 105.02 233.44C107.02 238.72 108.86 244.09 110.73 249.44C111.194 251.086 111.749 252.705 112.39 254.29C112.617 254.607 112.917 254.864 113.266 255.038C113.614 255.213 114 255.299 114.39 255.29C114.746 255.123 115.057 254.873 115.297 254.562C115.537 254.251 115.699 253.887 115.77 253.5C115.825 252.332 115.754 251.163 115.56 250.01C115.35 249.42 115.32 248.85 115.28 248.28H115.29ZM128.79 193.51C128.025 192.469 127.207 191.467 126.34 190.51C115.79 180.02 108.81 167.51 106.22 152.88C104.872 145.078 104.067 137.193 103.81 129.28C103.2 112.59 103.25 95.87 102.71 79.18C102.17 62.49 99.7101 46.23 92.8201 30.78C88.2489 20.2697 80.1877 11.6609 70 6.40998C67.4769 4.94725 64.4925 4.49691 61.65 5.14997C52.71 7.25997 43.65 8.74998 35.06 12.31C29.65 14.56 24.06 16.31 18.6 18.5C15.84 19.6 13.01 20.74 11.37 23.55C6.37005 32.12 3.86004 41.32 4.70004 51.24C5.4839 60.2175 7.66695 69.0171 11.17 77.32C14.4843 85.3439 18.535 93.0435 23.2701 100.32C32.73 114.73 42.39 129 51.94 143.32C57.0893 150.823 61.5252 158.791 65.19 167.12C70.4794 179.747 72.1383 193.601 69.98 207.12C69.77 208.56 69.57 210.01 69.37 211.46C71.99 211.69 72.48 211.46 72.81 209.16C73.31 205.67 73.67 202.16 73.93 198.64C74.57 189.78 73 181.12 70.84 172.64C69.6178 168.198 67.7907 163.945 65.41 160C59.8034 150.407 54 140.933 48 131.58C43.47 124.58 38.33 117.98 33.67 111.06C30.93 106.99 28.62 102.63 26.04 98.45C20.6986 90.049 16.1969 81.1427 12.6 71.86C10.41 65.95 8.36005 59.94 7.90005 53.55C7.18012 44.8753 8.48791 36.1521 11.72 28.07C13.03 24.84 14.92 22.53 18.11 21.33C22.72 19.6 27.31 17.8 32 16.33C39.77 13.9 47.6 11.68 55.44 9.45999C57.9 8.75999 60.4401 8.39998 62.9601 7.82998C64.0109 7.61056 65.0954 7.60734 66.1476 7.82052C67.1997 8.0337 68.1975 8.45882 69.08 9.06999C69.9 9.56999 70.7501 10.07 71.5701 10.54C77.8501 14.4 83.2601 19.11 87.1001 25.54C90.4432 31.3986 93.1263 37.6099 95.1001 44.06C98.3501 53.98 99.53 64.32 99.97 74.7C100.39 84.63 100.84 94.56 100.6 104.53C100.38 114.05 100.97 123.58 101.2 133.11C101.203 139.419 101.806 145.714 103 151.91C104.49 158.71 106.737 165.321 109.7 171.62C113.299 179.664 118.526 186.876 125.05 192.8C125.91 193.57 126.71 194.57 128.78 193.51H128.79ZM218.24 488.21H218.11C216.11 483.21 214.16 478.27 212.21 473.3C208.98 465.03 205.81 456.74 202.53 448.49C199.14 439.95 195.59 431.49 192.22 422.92C187.83 411.77 183.59 400.57 179.22 389.42C174.85 378.27 170.22 367.01 165.76 355.78C161.47 344.94 157.26 334.07 153.02 323.22C152.487 321.712 151.866 320.236 151.16 318.8C150.82 318.17 149.92 317.33 149.41 317.41C148.13 317.62 148.34 318.78 148.61 319.74C148.868 320.669 149.175 321.584 149.53 322.48C150.28 324.37 151.14 326.21 151.84 328.11C155.46 337.95 159.063 347.797 162.65 357.65L171.59 382.05C174.423 389.783 177.26 397.517 180.1 405.25C183.65 414.89 187.22 424.51 190.75 434.15C193.837 442.59 196.9 451.037 199.94 459.49C203.06 468.15 206.14 476.83 209.27 485.49C210.36 488.49 211.48 491.49 212.73 494.49C213.65 496.65 215.29 497.39 217.03 496.69C219.4 495.69 220.2 493.94 219.34 491.57C218.9 490.47 218.58 489.33 218.23 488.21H218.24ZM154.24 315.7C152.88 317.09 153.7 318.33 154.14 319.44C156.44 325.19 158.89 330.89 161.14 336.65C166.3 349.65 171.38 362.73 176.5 375.77C179.28 382.83 182.11 389.87 184.88 396.93C188.12 405.2 191.31 413.49 194.55 421.75C197.09 428.21 199.72 434.64 202.26 441.11C205 448.11 207.66 455.11 210.4 462.03C213.487 469.89 216.603 477.74 219.75 485.58C220.511 487.575 221.413 489.513 222.45 491.38C222.772 492.076 223.348 492.623 224.06 492.908C224.773 493.192 225.567 493.193 226.28 492.91C227.035 492.618 227.68 492.098 228.127 491.422C228.573 490.747 228.798 489.949 228.77 489.14C228.628 488.077 228.335 487.04 227.9 486.06C222.76 473.84 217.603 461.627 212.43 449.42C207.67 438.21 202.84 427.02 198.09 415.81C190.823 398.603 183.56 381.367 176.3 364.1C169.84 348.84 163.363 333.583 156.87 318.33C156.36 317.12 155.89 315.94 154.23 315.7H154.24ZM133.68 321.79C132.6 323.97 132.62 323.97 133.41 326.69C136.65 337.797 139.887 348.903 143.12 360.01C146.63 372.01 150.17 384.01 153.65 396.1C156.5 405.97 159.25 415.87 162.1 425.75C165.54 437.69 169.007 449.62 172.5 461.54C175.15 470.54 177.87 479.62 180.5 488.66C180.68 489.27 180.75 489.92 180.94 490.53C182.24 494.84 183.49 499.17 184.94 503.44C185.147 504.229 185.636 504.916 186.313 505.371C186.991 505.825 187.811 506.017 188.62 505.91C189.396 505.67 190.071 505.181 190.542 504.52C191.014 503.859 191.256 503.062 191.23 502.25C191.213 500.864 191.001 499.487 190.6 498.16C188.43 491.32 186.11 484.53 183.95 477.68C176.297 453.447 168.683 429.22 161.11 405C157.43 393.23 153.83 381.43 150.11 369.67C145.443 354.737 140.72 339.813 135.94 324.9C135.58 323.67 135.46 322.27 133.67 321.79H133.68ZM129.42 323.33C127.42 324.33 127.68 325.42 127.99 326.61C130.1 334.79 132.17 342.99 134.29 351.16C136.29 358.82 138.313 366.487 140.36 374.16C142.08 380.57 143.86 386.96 145.62 393.36C146.3 395.84 147.02 398.31 147.62 400.8C149.89 409.6 152.12 418.42 154.4 427.22C155.91 433.02 157.49 438.8 159.02 444.59C161.52 453.997 164.01 463.407 166.49 472.82C167.857 477.993 169.213 483.17 170.56 488.35C172.09 494.25 173.56 500.17 175.11 506.05C175.386 506.987 175.984 507.796 176.798 508.336C177.612 508.875 178.59 509.11 179.56 509C181.13 508.73 182.19 507.25 182.2 505.1C182.194 504.249 182.066 503.404 181.82 502.59C178.347 490.657 174.86 478.723 171.36 466.79C169.167 459.283 166.98 451.777 164.8 444.27C164.29 442.53 163.69 440.81 163.2 439.07C161.2 432.063 159.233 425.063 157.3 418.07C156.12 413.86 154.97 409.65 153.77 405.45C150.757 394.95 147.727 384.45 144.68 373.95C142.95 367.95 141.22 362.01 139.45 356.05C136.483 346.05 133.483 336.09 130.45 326.17C130.26 325.23 129.85 324.41 129.41 323.33H129.42ZM158.81 314.58C158.963 315.775 159.214 316.956 159.56 318.11C160.48 320.5 161.56 322.82 162.56 325.18C165.5 332.06 168.433 338.943 171.36 345.83C174.22 352.51 177.13 359.18 179.96 365.83C183.91 375.19 187.77 384.58 191.72 393.94C196.72 405.76 201.72 417.55 206.78 429.36C210 436.93 213.24 444.5 216.42 452.09C219.9 460.37 223.33 468.68 226.8 476.96C228.12 480.11 229.45 483.27 230.87 486.38C231.018 486.814 231.254 487.213 231.562 487.552C231.871 487.891 232.246 488.163 232.665 488.35C233.083 488.538 233.536 488.637 233.994 488.642C234.453 488.648 234.908 488.558 235.33 488.38C237.17 487.76 237.91 486.56 237.49 484.31C237.196 482.738 236.723 481.204 236.08 479.74C234.22 475.54 232.18 471.42 230.29 467.23C224.75 454.95 219.29 442.64 213.72 430.36C207.293 416.133 200.84 401.917 194.36 387.71C191.19 380.71 188.08 373.71 184.89 366.71C180.89 357.86 176.74 349.04 172.68 340.19C169.03 332.19 165.43 324.19 161.79 316.26C161.32 315.24 160.81 314.12 158.8 314.58H158.81ZM199.1 485L199.3 484.94C200.49 488.71 201.65 492.5 202.89 496.25C203.181 497.052 203.626 497.789 204.2 498.42C205.66 500.08 207.58 500.49 209.07 499.58C210.56 498.67 210.84 497.14 210.07 494.99C207.59 488.27 205.07 481.56 202.6 474.84C198.973 465.007 195.357 455.173 191.75 445.34C188.49 436.4 185.35 427.41 182.07 418.48C177.39 405.74 172.62 393.02 167.9 380.29C165.08 372.67 162.28 365.04 159.5 357.4C155.38 346.067 151.283 334.697 147.21 323.29C146.889 322.159 146.432 321.071 145.85 320.05C145.48 319.5 144.54 319.35 143.85 319.05C143.548 319.776 143.385 320.553 143.37 321.34C143.7 322.347 144.101 323.329 144.57 324.28C148.197 334.893 151.807 345.513 155.4 356.14C159.873 369.433 164.32 382.737 168.74 396.05C170.44 401.13 172.12 406.21 173.86 411.27C177 420.37 180.21 429.45 183.32 438.56C186.32 447.38 189.26 456.22 192.2 465.06C192.87 467.06 193.41 469.15 194.12 471.16C195.72 475.78 197.42 480.4 199.1 485ZM247 479.2C246.69 478.5 246.44 477.9 246.16 477.33L223.26 430.33C217.26 417.93 211.26 405.49 205.26 393.09C197.26 376.65 189.24 360.223 181.2 343.81C176.65 334.49 172.14 325.16 167.53 315.87C166.97 314.74 166.69 312.96 164.79 313.27C163.73 313.44 163.91 314.74 165.06 317.21C167.06 321.57 169.06 325.97 171.06 330.34C177.967 345.393 184.877 360.443 191.79 375.49C196.01 384.73 200.13 394.01 204.32 403.26C209.74 415.26 215.17 427.223 220.61 439.15C226.843 452.877 233.08 466.603 239.32 480.33C239.705 481.21 240.217 482.029 240.84 482.76C242.35 484.46 243.41 484.56 245.35 483.39C247.29 482.22 247.6 481.08 247 479.2ZM145.55 335.43L145.39 335.48C144.29 332 143.24 328.48 142.08 325.06C141.595 323.649 140.972 322.289 140.22 321C140.037 320.772 139.798 320.594 139.527 320.484C139.256 320.374 138.961 320.334 138.67 320.37C138.43 320.544 138.236 320.773 138.102 321.037C137.968 321.301 137.899 321.594 137.9 321.89C137.998 322.741 138.21 323.575 138.53 324.37C140.98 332.03 143.48 339.67 145.9 347.37C152.267 367.517 158.617 387.667 164.95 407.82C174.283 437.587 183.617 467.357 192.95 497.13C193.497 498.747 194.275 500.276 195.26 501.67C196.45 503.42 197.97 503.84 199.4 503.19C200.83 502.54 201.54 500.96 200.87 498.77C200.15 496.42 199.17 494.16 198.38 491.83C194.48 480.377 190.597 468.917 186.73 457.45C183.983 449.337 181.243 441.22 178.51 433.1C174.11 420 169.717 406.9 165.33 393.8C163.53 388.44 161.78 383.07 159.96 377.72C155.6 364.953 151.223 352.193 146.83 339.44C146.35 338.09 146 336.75 145.55 335.43ZM126.55 330.94H126.41C126.08 329.59 125.79 328.23 125.41 326.89C125.14 325.89 124.6 324.89 123.41 325.39C122.94 325.59 122.57 326.86 122.72 327.52C124.44 335.23 126.25 342.93 128.06 350.62C129.11 355.1 130.2 359.56 131.27 364.03C132.88 370.79 134.47 377.55 136.1 384.3C137.33 389.39 138.65 394.46 139.85 399.56C141.49 406.56 143.01 413.56 144.66 420.49C146.31 427.42 148.16 434.61 149.85 441.68C151.67 449.26 153.39 456.86 155.19 464.45C156.77 471.11 158.42 477.75 159.99 484.45C161.86 492.35 163.65 500.27 165.57 508.16C165.875 509.169 166.441 510.079 167.21 510.8C167.39 511.043 167.636 511.228 167.92 511.332C168.203 511.437 168.511 511.456 168.805 511.388C169.099 511.32 169.367 511.168 169.576 510.949C169.785 510.731 169.925 510.457 169.98 510.16C170.321 508.937 170.399 507.656 170.21 506.4C169.882 504.713 169.468 503.044 168.97 501.4C167.68 496.21 166.34 491.03 165.14 485.82C163.64 479.26 162.38 472.64 160.79 466.1C158.67 457.38 156.29 448.73 154.1 440.02C151.91 431.31 150 422.76 147.73 414.19C145.46 405.62 142.97 396.88 141.27 388.05C140.87 385.96 140.33 383.88 139.78 381.82C138.17 375.82 136.47 369.82 134.91 363.82C132.07 352.9 129.31 341.92 126.51 330.94H126.55ZM255.85 474.37C255.26 473.17 254.76 472.1 254.22 471.05C251.59 466.05 248.91 461.05 246.31 455.99C239.24 442.31 232.25 428.59 225.15 414.93C213.357 392.263 201.53 369.597 189.67 346.93C184.03 336.123 178.4 325.313 172.78 314.5C172.21 313.41 171.67 311.5 170.25 312.18C168.46 313.02 169.92 314.63 170.45 315.75C173.183 321.55 175.977 327.32 178.83 333.06C183.12 341.67 187.51 350.24 191.83 358.84C195.37 365.9 198.83 373.01 202.4 380.05C206.9 388.9 211.53 397.68 216.02 406.52C220.51 415.36 225.02 424.52 229.51 433.45C232.45 439.27 235.57 444.99 238.51 450.83C241.32 456.47 243.92 462.22 246.69 467.89C248.15 470.89 249.69 473.77 251.35 476.65C251.95 477.72 252.9 478.49 254.27 477.71C254.829 477.367 255.276 476.868 255.557 476.275C255.837 475.682 255.939 475.02 255.85 474.37ZM118.22 327.18C116.89 328.18 117.5 329.44 117.78 330.69C119.16 336.84 120.55 342.99 121.84 349.15C124.66 362.53 127.4 375.93 130.22 389.31C132.22 399.03 134.44 408.72 136.49 418.44C140.13 435.687 143.747 452.94 147.34 470.2C149.47 480.35 151.59 490.5 153.76 500.64C154.52 504.19 155.42 507.72 156.29 511.25C156.58 512.42 157.45 513.39 158.54 512.98C158.963 512.712 159.321 512.353 159.587 511.929C159.854 511.505 160.022 511.027 160.08 510.53C160.109 509.252 159.94 507.977 159.58 506.75C158.89 503.4 158.16 500.06 157.43 496.75C157 494.75 156.54 492.75 156.09 490.83C155.09 486.57 154.01 482.33 153.09 478.05C152.4 474.71 152.09 471.28 151.4 467.95C149.34 458.34 147.16 448.76 145.01 439.18C143.49 432.4 141.89 425.64 140.39 418.86C139.39 414.38 138.6 409.86 137.57 405.37C135.76 397.56 133.77 389.8 131.99 381.98C130.43 375.11 129.11 368.18 127.6 361.29C125.287 350.75 122.93 340.223 120.53 329.71C120.3 328.45 120.06 327 118.22 327.18ZM114 328.79L112.9 328.97C112.677 329.826 112.559 330.706 112.55 331.59C112.74 333.39 113.13 335.18 113.46 336.96C115.533 348.1 117.61 359.237 119.69 370.37C121.81 381.83 123.92 393.29 126.02 404.75C128.02 415.75 130.13 426.83 132.16 437.87C133.8 446.81 135.39 455.76 137.03 464.69C138.64 473.42 140.29 482.14 141.93 490.86C143.25 497.86 144.6 504.94 145.86 511.99C145.917 512.772 146.232 513.513 146.755 514.097C147.278 514.682 147.979 515.076 148.75 515.22C149.371 514.838 149.85 514.265 150.115 513.586C150.38 512.908 150.417 512.161 150.22 511.46C149.92 509.56 149.52 507.68 149.15 505.79C147.83 499.08 146.44 492.38 145.15 485.66C143.46 476.66 141.91 467.57 140.22 458.54C138.88 451.4 137.36 444.29 136.01 437.15C133.6 424.45 131.28 411.73 128.87 399.02C126.49 386.54 124.1 374.02 121.61 361.59C119.61 351.59 117.46 341.71 115.32 331.79C114.984 330.747 114.542 329.742 114 328.79ZM62.4 229.47C62.5834 230.734 62.8405 231.986 63.17 233.22C63.54 234.31 64.08 235.42 65.7701 234.94C65.8516 234.518 65.8951 234.09 65.9 233.66C65.7178 232.501 65.6042 231.332 65.56 230.16C65.64 228.16 67.41 226.68 69.72 226.45C71.86 226.24 71.66 227.93 72 229.22C72.3 230.33 72.54 231.55 74.59 231.59C74.6158 230.588 74.5757 229.586 74.47 228.59C73.82 224.8 74.1901 224.18 77.9601 223.16C78.4601 223.02 78.9601 223 79.8501 222.87C80.2568 224.058 80.7275 225.223 81.26 226.36C81.56 226.94 82.26 227.71 82.72 227.71C83.72 227.71 84.04 226.8 83.94 225.84C83.7323 224.793 83.6252 223.728 83.62 222.66C83.6602 222.315 83.7818 221.985 83.9748 221.696C84.1678 221.407 84.4267 221.169 84.73 221C85.21 220.87 86.1 221.43 86.47 221.94C86.9501 222.61 86.9501 223.62 87.41 224.3C87.76 224.83 88.52 225.08 89.09 225.46C89.4 224.84 89.96 224.22 89.95 223.61C89.8726 222.268 89.7123 220.932 89.47 219.61C89.9271 219.392 90.3981 219.205 90.8801 219.05C91.1685 219.008 91.4616 219.008 91.75 219.05C92.1 220.16 92.41 221.17 92.75 222.18C93.09 223.19 93.75 224.23 95.06 223.8C96.37 223.37 96.33 222.27 96 221.12C95.6772 220.229 95.4819 219.296 95.42 218.35C95.42 217.9 96.07 217.35 96.56 217.08C96.75 216.98 97.44 217.54 97.68 217.93C97.9657 218.508 98.1773 219.119 98.31 219.75C98.66 220.94 99.14 221.98 100.54 222.02C103.3 220.35 99.4601 217.2 102.02 215.45C104.24 216.62 103.2 220.25 106.16 220.72C107.16 218.93 107.16 218.93 106.55 215.91C106.34 214.91 105.97 213.97 107.64 213.75C108.96 215.75 108.86 218.75 111.76 219.89L114.04 216.89C115.75 217.34 117.21 218.23 118.19 217.89C119.17 217.55 119.88 215.89 120.79 214.75L122.17 215.65C124.29 217.05 124.98 216.89 126.17 214.65C126.51 214.03 126.87 213.42 127.33 212.65C127.92 213.16 128.33 213.52 128.69 213.84C130.5 215.27 131.34 215.1 132.43 213.09C132.81 212.4 133.21 211.71 133.72 210.82C134.072 211.055 134.407 211.315 134.72 211.6C135.6 212.6 136.72 213.82 137.91 212.81C138.7 212.15 138.97 210.55 138.96 209.37C138.775 208.12 138.419 206.902 137.9 205.75C139.62 204.95 140.28 205.89 140.76 207C141.24 208.11 141.54 209.47 142.12 210.6C142.292 210.842 142.522 211.038 142.79 211.167C143.057 211.296 143.353 211.356 143.65 211.34C143.925 211.212 144.162 211.015 144.338 210.768C144.513 210.521 144.621 210.232 144.65 209.93C144.41 208.58 143.85 207.3 143.48 205.93C143.365 205.343 143.294 204.748 143.27 204.15C146.68 204.23 148.1 206.15 148.57 208.95C148.8 210.3 149.07 211.21 150.64 210.95C152.95 206.64 150.64 201.95 145.78 201.47C143.54 201.252 141.279 201.407 139.09 201.93C128.8 204.41 118.51 206.93 108.3 209.72C102.11 211.43 96.07 213.66 90 215.78C83.64 218 77.29 220.27 71 222.7C67.9249 223.937 64.9204 225.342 62 226.91C60.6271 227.558 59.4889 228.615 58.742 229.937C57.9952 231.259 57.6766 232.78 57.83 234.29C57.93 236.24 58.6901 237.11 60.8801 237.81C61.09 235.17 59.54 232.17 62.4 229.47ZM99.08 335.24C97.51 336.69 97.44 336.69 97.54 338.04C97.69 340.17 97.94 342.3 98.16 344.42L105.72 417.84C108.507 444.873 111.297 471.903 114.09 498.93C114.54 503.3 114.91 507.67 115.45 512.03C115.68 513.85 117.09 515.16 118.28 515.03C119.47 514.9 120.12 513.51 119.89 511.32C119.037 503.24 118.167 495.163 117.28 487.09L114.28 460.7C113.22 451.14 112.2 441.57 111.15 432.01C110.15 423.01 109.15 413.95 108.15 404.93L105.15 380.43C103.69 367.9 102.36 355.36 100.82 342.84C100.51 340.44 100.57 337.81 99.08 335.24ZM174.67 311.49C174.907 312.48 175.221 313.449 175.61 314.39C177.73 318.48 179.85 322.56 182.08 326.58C186.83 335.19 191.67 343.75 196.44 352.36C201.21 360.97 205.97 369.55 210.66 378.18C217.51 390.76 224.37 403.34 231.08 415.99C236.84 426.84 242.36 437.81 248.08 448.69C251.25 454.75 254.56 460.75 257.84 466.76C258.366 467.81 259.04 468.78 259.84 469.64C261 470.79 262.23 470.41 262.84 468.88C263.073 468.226 263.146 467.527 263.052 466.839C262.958 466.152 262.7 465.497 262.3 464.93C248.233 439.557 234.187 414.173 220.16 388.78C209.32 369.213 198.453 349.66 187.56 330.12C184.493 324.607 181.41 319.1 178.31 313.6C177.64 312.47 177.13 311 174.67 311.5V311.49ZM29.16 21.49L28.16 21.34C27.6779 21.9836 27.2999 22.699 27.04 23.46C26.2212 27.5495 25.6402 31.6831 25.3 35.84C25.0846 41.7201 25.807 47.597 27.44 53.25C28.8675 58.9415 30.8192 64.4886 33.2701 69.82C36.0801 75.57 38.9201 81.29 41.9601 86.94C46.9601 96.2 52.8 104.88 58.28 113.8C63.28 121.91 68.84 129.65 73.47 137.94C77.6301 145.38 80.96 153.3 84.47 161.08C88.1567 169.175 91.0049 177.625 92.97 186.3C93.91 190.46 94.39 194.72 95.11 198.93C95.1981 199.778 95.453 200.601 95.86 201.35C95.9519 201.55 96.0992 201.719 96.2844 201.838C96.4696 201.957 96.685 202.02 96.905 202.02C97.1251 202.02 97.3405 201.957 97.5257 201.838C97.7109 201.719 97.8582 201.55 97.95 201.35C98.2955 200.708 98.4285 199.973 98.33 199.25C96.9446 189.078 94.5528 179.069 91.19 169.37C88.6934 161.971 85.6655 154.762 82.1301 147.8C77.9501 139.74 73.6001 131.8 68.8801 124C63.2701 114.77 57.07 105.9 51.36 96.72C48.15 91.56 45.4501 86.09 42.4901 80.77C38.6401 73.84 35.16 66.77 33 59.08C32.7957 58.3572 32.552 57.6461 32.2701 56.95C29.9992 50.9483 28.631 44.6431 28.2101 38.24C27.935 33.5333 28.244 28.8107 29.1301 24.18C29.216 23.3058 29.2261 22.4259 29.16 21.55V21.49ZM23.16 24.05C21.75 23.12 21.09 23.74 20.75 24.57C20.3143 25.6659 19.9991 26.8059 19.81 27.97C18.3681 35.7596 17.9914 43.709 18.69 51.6C19.215 56.9065 20.4459 62.1192 22.3501 67.1C24.5357 72.5677 27.0916 77.88 30 83C33.36 89.07 37.0801 94.94 40.7101 100.86C44.2301 106.6 47.78 112.33 51.41 118.01C57.23 127.1 63.41 135.96 68.91 145.27C73.2263 152.528 76.9645 160.115 80.09 167.96C83.5 176.72 85.93 185.87 86.09 195.44C86.14 198.32 86.43 201.2 86.73 204.06C86.7116 204.373 86.8092 204.681 87.0042 204.926C87.1992 205.171 87.4779 205.335 87.7866 205.387C88.0953 205.439 88.4124 205.375 88.677 205.208C88.9416 205.041 89.135 204.781 89.22 204.48C89.5491 203.696 89.7027 202.85 89.67 202C89.4994 193.763 88.3343 185.577 86.2 177.62C83.9844 169.563 80.9311 161.761 77.09 154.34C70.8475 142.292 63.9781 130.579 56.51 119.25C52.19 112.62 47.66 106.12 43.4 99.46C40.7 95.24 38.19 90.89 35.83 86.46C32.66 80.54 29.73 74.46 26.67 68.46C23.592 62.3527 21.763 55.6927 21.29 48.87C20.81 42.79 20.49 36.72 21.68 30.68C22.17 28.51 22.6601 26.33 23.1301 24.11L23.16 24.05ZM16.81 25.82L16.09 25.55C13.72 27.15 12.94 29.79 12.21 32.29C8.74004 44.14 9.32005 55.95 12.83 67.72C14.0627 71.7057 15.6908 75.5582 17.69 79.22C19.89 83.36 21.69 87.72 24.09 91.75C27.69 97.82 31.6101 103.75 35.4601 109.62C43.3467 121.713 51.2634 133.79 59.2101 145.85C65.2101 155 70.45 164.58 73.7 175.08C76.1403 183.194 76.9992 191.702 76.23 200.14C76.02 202.7 75.6 205.23 75.4 207.79C75.4 208.31 75.88 208.88 76.14 209.42H76.95C77.4715 208.316 77.8834 207.164 78.18 205.98C80 194.18 79.69 182.54 75.28 171.25C74.62 169.56 74.04 167.83 73.28 166.18C71.46 162.1 69.81 157.92 67.64 154.03C64.64 148.72 61.42 143.57 58.09 138.48C51.4 128.27 44.5401 118.18 37.8201 108C35.0501 103.81 32.3701 99.55 29.8201 95.22C27.2701 90.89 25.1201 86.59 22.7101 82.31C19.0647 75.8991 16.2679 69.0417 14.39 61.91C11.4404 50.8729 12.0565 39.1858 16.15 28.52C16.4188 27.6516 16.6292 26.7663 16.78 25.87L16.81 25.82ZM178.71 302.82C177.08 300.82 176.71 300.53 175.51 300.56C174.328 300.59 173.153 300.737 172 301C164 302.83 155.87 304.36 148 306.63C133.59 310.77 119.28 315.27 105.33 320.83C101.27 322.45 97.33 324.42 93.33 326.27C92.6439 326.472 92.0462 326.9 91.6341 327.484C91.222 328.069 91.0197 328.776 91.06 329.49C96.59 327.23 101.69 324.98 106.92 323.04C112.15 321.1 117.47 318.81 123.21 318.12C122.821 318.568 122.326 318.911 121.77 319.12C116.13 321.43 110.44 323.61 104.86 326.07C101.64 327.49 98.61 329.33 95.53 331.07C94.944 331.3 94.4532 331.722 94.1373 332.267C93.8214 332.811 93.699 333.447 93.79 334.07C120.823 321.518 149.372 312.533 178.72 307.34C176.14 304.83 173.61 305.96 171.32 306.03C169.03 306.1 166.6 306.57 164.24 306.87L164.02 305.87C168.772 304.303 173.693 303.303 178.68 302.89L178.71 302.82ZM104.3 333C102.04 333.6 102.4 334.9 102.57 336.16C103.65 344.16 104.75 352.26 105.78 360.31C108.23 379.31 110.61 398.31 113.09 417.31C115.51 435.86 118.01 454.41 120.46 472.96C122.227 486.293 123.967 499.66 125.68 513.06C125.83 514.25 125.79 515.42 127.29 515.88C128.8 514.88 128.39 513.39 128.24 512.1C127.65 507 126.92 501.92 126.24 496.84C124.72 484.84 123.29 472.84 121.67 460.93C120.21 450.13 118.43 439.38 117 428.58C115.14 414.49 113.54 400.38 111.74 386.28C110.9 379.71 109.74 373.18 108.95 366.61C107.74 357.06 106.7 347.5 105.51 337.95C105.214 336.276 104.81 334.622 104.3 333ZM137.87 516.2C139.08 514.62 138.6 513.01 138.35 511.46C137.103 503.767 135.837 496.077 134.55 488.39C133.27 480.81 131.95 473.23 130.66 465.65C130.28 463.44 129.87 461.24 129.56 459.02C128.38 450.55 127.36 442.02 126.05 433.61C124.61 424.32 122.85 415.07 121.34 405.79C120.34 399.36 119.51 392.89 118.48 386.46C117.01 377.28 115.34 368.13 113.91 358.95C112.66 350.95 111.65 342.87 110.51 334.84C110.361 333.784 110.085 332.75 109.69 331.76C109.56 331.555 109.38 331.386 109.166 331.271C108.953 331.155 108.713 331.096 108.47 331.1C108.24 331.194 108.036 331.342 107.876 331.532C107.716 331.722 107.604 331.948 107.55 332.19C107.462 333.04 107.496 333.899 107.65 334.74C109.77 348.147 111.907 361.553 114.06 374.96C115.73 385.41 117.43 395.86 119.06 406.32C120.93 418.26 122.7 430.22 124.58 442.15C127.247 459.157 129.953 476.157 132.7 493.15C133.8 500.02 134.94 506.87 135.99 513.75C136.14 514.84 136.2 515.84 137.87 516.17V516.2ZM63.47 222.5C64.42 222.07 65.08 221.79 65.73 221.5C67.73 220.5 69.66 219.3 71.73 218.5C76.18 216.69 80.67 214.97 85.2 213.38C90.95 211.38 96.71 209.3 102.56 207.6C110.46 205.3 118.48 203.38 126.41 201.19C130.24 200.13 134.06 199.19 138.08 199.37C138.52 199.37 138.98 199.04 140.16 198.58C138.96 197.89 138.31 197.22 137.67 197.21C135.661 197.127 133.649 197.265 131.67 197.62C126.03 198.86 120.41 200.18 114.84 201.69C100.452 205.524 86.312 210.236 72.5 215.8C70.1252 216.768 67.8255 217.911 65.62 219.22C64.59 219.7 63.17 220.31 63.47 222.47V222.5ZM189.28 510.78C187.28 511.48 186.53 513.19 187.28 515.45C187.89 517.19 189.64 517.84 191.8 517.13C193.96 516.42 194.74 515.06 194.07 512.98C193.38 510.73 191.68 510 189.28 510.78ZM181.76 519.6C184.06 518.9 185.09 517.22 184.44 515.26C183.84 513.46 182.1 512.9 179.55 513.68C178.634 513.972 177.861 514.598 177.384 515.433C176.908 516.269 176.764 517.253 176.98 518.19C177.49 519.64 179.58 520.26 181.75 519.6H181.76ZM169.83 515.93C167.83 516.56 166.55 518.39 166.99 519.98C167.5 521.8 169.45 522.58 171.76 521.88C174.07 521.18 174.92 519.49 174.18 517.46C173.61 515.89 171.87 515.28 169.82 515.92L169.83 515.93ZM209.91 510.93C212.05 510.25 213.01 508.67 212.39 506.84C212.242 506.411 212.007 506.016 211.701 505.681C211.395 505.346 211.024 505.076 210.61 504.889C210.197 504.702 209.749 504.601 209.295 504.592C208.841 504.584 208.39 504.668 207.97 504.84C207.523 504.939 207.103 505.135 206.741 505.416C206.379 505.697 206.084 506.054 205.878 506.463C205.671 506.871 205.558 507.321 205.546 507.779C205.534 508.237 205.624 508.691 205.81 509.11C206.39 510.91 207.83 511.55 209.9 510.9L209.91 510.93ZM203.44 510.09C202.83 508.09 201.38 507.38 199.15 508.02C196.92 508.66 196.33 509.9 197 512.19C197.63 514.32 198.64 514.82 200.89 514.11C203.14 513.4 204 512 203.44 510.05V510.09ZM223 501.82C223.053 502.164 223.179 502.492 223.371 502.781C223.563 503.071 223.816 503.316 224.112 503.498C224.407 503.681 224.739 503.797 225.084 503.839C225.429 503.881 225.779 503.847 226.11 503.74C228.25 503.24 230.11 501.05 229.7 499.52C229.29 497.99 227.54 497.24 225.47 497.79C223.4 498.34 222.39 499.76 223 501.82ZM214.6 505.63C215.25 507.53 216.5 508.15 218.3 507.47C220.52 506.63 221.44 505.08 220.74 503.33C220.379 502.546 219.731 501.929 218.929 501.608C218.128 501.286 217.233 501.283 216.43 501.6C214.46 502.24 213.85 503.57 214.56 505.63H214.6ZM142 525.87C142.425 525.782 142.826 525.604 143.175 525.346C143.525 525.088 143.814 524.758 144.023 524.378C144.232 523.997 144.356 523.576 144.387 523.143C144.417 522.71 144.354 522.276 144.2 521.87C143.64 520.3 141.72 519.71 139.5 520.41C139.155 520.472 138.827 520.609 138.54 520.811C138.253 521.012 138.013 521.274 137.838 521.577C137.662 521.881 137.554 522.219 137.521 522.568C137.489 522.917 137.533 523.269 137.65 523.6C137.784 524.036 138.004 524.441 138.296 524.792C138.588 525.143 138.947 525.432 139.351 525.643C139.756 525.854 140.198 525.983 140.653 526.022C141.108 526.061 141.565 526.009 142 525.87ZM151.79 524.4C154.02 523.74 155.05 522.05 154.53 520.4C154.01 518.75 152.53 518.4 150.53 519.07C149.917 519.232 149.352 519.537 148.88 519.96C148.37 520.53 147.66 521.45 147.82 521.96C148.161 522.905 148.813 523.706 149.67 524.23C150.35 524.65 151.35 524.39 151.82 524.4H151.79ZM161.9 523.47C163.9 522.87 164.65 521.29 163.99 519.2C163.49 517.61 162.39 517.2 160.41 517.71C158.43 518.22 157.32 519.97 157.95 521.77C158.1 522.143 158.321 522.483 158.602 522.77C158.883 523.057 159.218 523.287 159.588 523.444C159.958 523.602 160.355 523.686 160.756 523.69C161.158 523.695 161.557 523.62 161.93 523.47H161.9ZM233.9 493.04C233.27 493.69 232.01 494.39 231.9 495.29C231.9 496.413 232.342 497.491 233.13 498.29C234.13 499.35 235.29 498.56 236.31 498C236.872 497.713 237.396 497.357 237.87 496.94C238.201 496.674 238.449 496.318 238.583 495.915C238.718 495.512 238.733 495.079 238.627 494.668C238.522 494.256 238.3 493.884 237.988 493.595C237.677 493.306 237.288 493.114 236.87 493.04C235.887 492.924 234.895 492.91 233.91 493L233.9 493.04ZM253.31 482.44C252.6 483.06 251.55 483.61 251.11 484.44C250.939 484.853 250.867 485.3 250.898 485.746C250.929 486.192 251.063 486.625 251.29 487.01C251.609 487.337 251.992 487.595 252.415 487.767C252.839 487.94 253.293 488.022 253.75 488.01C255.1 488.01 256.85 485.88 257.12 484.47C257.33 483.33 256.97 482.54 255.76 482.39C254.946 482.355 254.131 482.371 253.32 482.44H253.31ZM244.42 487.85C241.92 488.65 240.92 489.94 241.49 491.62C241.97 493.04 243.41 493.55 245.25 492.95C247.25 492.29 248.08 490.85 247.43 489.04C246.89 487.51 246.27 487.26 244.43 487.84L244.42 487.85ZM187.55 524.45C187.05 522.66 185.87 522.08 183.85 522.65C182.15 523.12 180.99 524.8 181.4 526.17C181.81 527.54 183.47 528.17 185.4 527.62C187.33 527.07 188 526.08 187.57 524.44L187.55 524.45ZM217 511.72C215 512.29 213.77 513.97 214.22 515.39C214.525 516.07 215.065 516.618 215.74 516.934C216.416 517.25 217.182 517.312 217.9 517.11C219.7 516.61 220.72 515.05 220.21 513.54C220.121 513.208 219.967 512.898 219.757 512.626C219.547 512.355 219.285 512.127 218.986 511.958C218.687 511.789 218.358 511.681 218.017 511.64C217.676 511.599 217.33 511.626 217 511.72ZM128.39 520.26C127.05 520.71 126.39 521.86 126.94 522.93C127.449 523.736 128.164 524.391 129.012 524.827C129.86 525.263 130.808 525.464 131.76 525.41C132.11 525.388 132.448 525.274 132.74 525.08C133.032 524.885 133.268 524.618 133.424 524.304C133.58 523.99 133.65 523.64 133.629 523.29C133.607 522.94 133.494 522.602 133.3 522.31C132.802 521.507 132.067 520.878 131.197 520.511C130.326 520.144 129.363 520.056 128.44 520.26H128.39ZM210.16 519.87C212.23 519.26 213.02 518.25 212.57 516.79C212.437 516.41 212.228 516.061 211.957 515.764C211.686 515.466 211.357 515.227 210.992 515.059C210.626 514.891 210.23 514.798 209.828 514.786C209.426 514.775 209.025 514.844 208.65 514.99C206.85 515.57 205.85 517.17 206.36 518.65C206.87 520.13 208.2 520.46 210.21 519.87H210.16ZM193.8 525.3C195.96 524.68 196.71 523.63 196.33 522.21C195.95 520.79 194.97 520.15 193.12 520.43C192.596 520.517 192.08 520.651 191.58 520.83C190.58 521.16 189.58 521.7 189.94 522.83C190.269 523.786 190.905 524.605 191.75 525.16C192.36 525.53 193.38 525.28 193.8 525.3ZM204.27 519.68C203.62 517.78 202.47 517.2 200.61 517.86C198.75 518.52 197.97 519.86 198.61 521.51C199.25 523.16 200.69 523.51 202.61 522.82C204.33 522.17 204.81 521.28 204.27 519.68ZM177.14 529.33C177.529 529.221 177.891 529.032 178.202 528.774C178.513 528.516 178.767 528.196 178.946 527.834C179.125 527.471 179.226 527.076 179.242 526.672C179.259 526.268 179.19 525.865 179.04 525.49C178.6 524.34 177.34 523.99 175.74 524.59C174.14 525.19 172.97 526.76 173.31 527.95C173.65 529.14 175.51 529.9 177.13 529.33H177.14ZM166.89 526.19C165.3 526.66 163.89 528.19 164.04 529.25C164.19 530.31 166.04 531.06 167.88 530.81C169.72 530.56 170.8 529.4 170.41 527.92C170.02 526.44 168.61 525.69 166.88 526.19H166.89ZM232.73 509.32C234.73 508.66 235.78 507.18 235.23 505.85C234.912 505.221 234.362 504.74 233.697 504.507C233.031 504.273 232.301 504.307 231.66 504.6C229.81 505.24 228.88 506.6 229.34 507.88C229.8 509.16 231.09 509.87 232.72 509.33L232.73 509.32ZM224.33 508.86C222.71 509.34 221.82 510.61 222.21 511.86C222.38 512.478 222.777 513.01 223.323 513.347C223.868 513.685 224.521 513.804 225.15 513.68C226.81 513.28 228.02 511.46 227.53 510.12C227.269 509.527 226.784 509.061 226.18 508.825C225.577 508.589 224.904 508.601 224.31 508.86H224.33ZM156.53 527C156.05 527.58 155.03 528.27 154.87 529.11C154.64 530.37 155.93 530.79 156.96 531.04C157.676 531.2 158.415 531.227 159.14 531.12C159.437 531.113 159.728 531.04 159.993 530.906C160.258 530.772 160.49 530.581 160.672 530.346C160.854 530.112 160.981 529.84 161.045 529.55C161.109 529.26 161.107 528.959 161.04 528.67C160.94 527.29 159.98 526.96 158.83 526.92C158.21 526.87 157.58 526.93 156.53 527ZM239.63 499.89C237.96 500.48 236.88 502.13 237.32 503.31C237.425 503.582 237.584 503.83 237.788 504.038C237.992 504.246 238.236 504.41 238.506 504.521C238.775 504.631 239.065 504.686 239.356 504.68C239.647 504.675 239.935 504.61 240.2 504.49C241.89 503.94 242.68 502.49 242.1 501.07C242.03 500.82 241.908 500.587 241.742 500.387C241.577 500.187 241.37 500.024 241.137 499.909C240.904 499.793 240.65 499.729 240.39 499.719C240.13 499.709 239.871 499.753 239.63 499.85V499.89ZM145.91 529.41C146.91 531.3 148.59 531.35 150.25 530.98C150.608 530.855 150.928 530.642 151.182 530.361C151.435 530.08 151.613 529.739 151.7 529.37C151.611 528.993 151.43 528.644 151.171 528.356C150.912 528.068 150.585 527.849 150.22 527.72C148.55 527.33 146.87 527.47 145.91 529.37V529.41ZM249.26 496C247.58 495.14 246.32 495.92 245.26 496.76C244.76 497.16 244.41 498.64 244.68 498.9C244.998 499.206 245.38 499.436 245.799 499.573C246.219 499.709 246.663 499.75 247.1 499.69C247.868 499.474 248.522 498.969 248.925 498.281C249.328 497.593 249.448 496.775 249.26 496ZM262.52 477.15C262.469 476.922 262.369 476.708 262.225 476.524C262.081 476.34 261.898 476.19 261.689 476.086C261.481 475.982 261.251 475.925 261.018 475.921C260.784 475.916 260.553 475.964 260.34 476.06C259.765 476.267 259.293 476.689 259.024 477.238C258.755 477.787 258.711 478.419 258.9 479C258.94 479.24 259.035 479.468 259.179 479.664C259.323 479.86 259.512 480.02 259.729 480.13C259.946 480.24 260.186 480.297 260.429 480.297C260.673 480.297 260.913 480.24 261.13 480.13C261.427 480.047 261.703 479.901 261.939 479.703C262.175 479.504 262.365 479.257 262.497 478.978C262.629 478.699 262.699 478.395 262.703 478.086C262.707 477.778 262.645 477.472 262.52 477.19V477.15ZM121.14 517.5C120.85 518.86 120.44 519.64 120.6 520.29C120.631 520.53 120.717 520.76 120.852 520.96C120.987 521.161 121.167 521.327 121.378 521.446C121.589 521.565 121.825 521.632 122.066 521.643C122.308 521.654 122.549 521.609 122.77 521.51C123.34 521.24 124.07 519.95 123.89 519.67C123.39 518.92 122.45 518.47 121.14 517.5ZM254.74 492.4C253.84 491.91 253.19 491.3 252.87 491.4C252.35 491.63 252.05 492.4 251.65 492.87C252.11 493.22 252.65 493.93 253.02 493.87C253.57 493.78 254 493.1 254.73 492.41L254.74 492.4Z" fill="#333A40"/>
<path d="M137.49 220.31L135.86 228.68C134.336 226.64 133.408 224.216 133.18 221.68C132.93 219.81 135 219.17 137.49 220.31ZM106.44 228.47C108.2 226.87 108.76 226.81 109.32 228.27C109.81 229.56 110.7 230.9 109.77 232.94L106.44 228.47ZM130.15 222.28L128.87 226.41C127.35 224.92 126.67 223.7 127.49 222.15C128 221.16 128.88 221.37 130.15 222.28ZM123.26 223.59L122.58 227.48C120.78 226.73 119.87 225.34 120.21 224.22C120.45 223.45 121.08 223.29 123.26 223.59ZM114.91 229.58C114.264 228.815 113.716 227.971 113.28 227.07C113.12 226.61 113.7 225.89 113.95 225.28C114.55 225.56 115.57 225.76 115.66 226.15C115.783 227.23 115.783 228.32 115.66 229.4L114.91 229.58Z" fill="#333A40"/>
</svg>
