<svg width="226" height="216" viewBox="0 0 226 216" fill="none" xmlns="http://www.w3.org/2000/svg">
<g opacity="0.2">
<path d="M82.6148 96.4874C82.6288 96.2309 82.6288 95.9739 82.6148 95.7174C82.2548 89.8674 83.6148 84.1774 84.2748 78.4274C85.2748 69.8774 86.4848 61.3374 87.5848 52.7974C88.5715 45.2107 89.5348 37.6107 90.4748 29.9974C91.6615 20.5974 92.8415 11.1874 94.0148 1.76737C94.2248 0.0773724 94.9248 -0.322628 96.5248 0.237372C97.6721 0.584319 98.6787 1.28835 99.3981 2.24699C100.118 3.20564 100.512 4.36886 100.525 5.56737C100.665 7.62737 100.665 9.69737 100.705 11.7674C100.845 19.2807 100.978 26.7974 101.105 34.3174C101.211 40.7374 101.315 47.154 101.415 53.5674C101.541 61.174 101.671 68.7774 101.805 76.3774C101.945 84.464 102.081 92.5507 102.215 100.637C102.399 104.722 102.265 108.814 101.815 112.877C101.761 113.204 101.804 113.539 101.94 113.841C102.075 114.144 102.296 114.4 102.575 114.577C105.325 116.697 108.025 118.887 110.865 120.887C112.865 122.327 115.095 123.557 117.275 124.797C120.585 126.657 124.239 127.824 128.015 128.227C129.192 128.376 130.361 128.59 131.515 128.867C132.862 129.161 134.053 129.945 134.855 131.067C135.855 132.487 136.855 133.967 137.955 135.327C140.038 138.019 142.741 140.169 145.833 141.593C148.925 143.017 152.315 143.674 155.715 143.507C157.824 143.465 159.923 143.197 161.975 142.707C166.954 141.437 172.208 141.787 176.975 143.707C181.793 145.524 185.849 148.927 188.475 153.357C190.588 156.799 191.513 160.839 191.105 164.857C191.005 165.857 190.995 166.787 190.965 167.757C190.934 168.755 191.168 169.743 191.642 170.621C192.116 171.499 192.814 172.236 193.665 172.757C195.695 174.097 198.038 174.889 200.465 175.057C204.018 175.359 207.596 175.092 211.065 174.267C214.55 173.45 217.964 172.357 221.275 170.997C222.655 170.467 222.945 170.577 223.785 171.797C224.301 172.505 224.778 173.239 225.215 173.997C225.775 174.997 225.675 175.527 224.615 175.997C223.034 176.763 221.408 177.431 219.745 177.997C211.683 180.627 203.367 182.403 194.935 183.297C189.695 183.907 184.414 184.084 179.145 183.827C173.642 183.663 168.198 182.633 163.015 180.777C159.986 179.703 157.167 178.109 154.685 176.067C152.152 173.881 150.107 171.186 148.685 168.157C147.175 164.977 145.775 161.747 144.225 158.587C142.413 154.781 140.251 151.152 137.765 147.747C134.818 143.954 131.206 140.728 127.105 138.227C122.57 135.424 117.613 133.367 112.425 132.137C107.825 130.967 103.185 129.947 98.5648 128.867C97.4548 128.607 97.3448 128.627 96.9548 129.797C95.9548 132.877 94.8848 135.967 93.9548 139.077C91.9797 145.419 90.6595 151.947 90.0148 158.557C89.3155 164.868 89.8729 171.254 91.6548 177.347C92.2412 179.187 92.9357 180.99 93.7348 182.747C94.8306 185.147 95.6621 187.658 96.2148 190.237C96.4436 191.265 96.8174 192.255 97.3248 193.177C97.6371 193.736 98.0671 194.221 98.5851 194.597C99.1031 194.974 99.6967 195.233 100.325 195.357C100.705 195.447 101.105 195.477 101.495 195.537C102.08 195.608 102.645 195.793 103.158 196.083C103.672 196.373 104.122 196.761 104.485 197.226C104.847 197.691 105.114 198.223 105.271 198.791C105.427 199.359 105.469 199.953 105.395 200.537C105.366 201.693 104.937 202.802 104.183 203.677C103.428 204.552 102.393 205.139 101.255 205.337C100.424 205.508 99.5596 205.358 98.8348 204.917C96.7748 203.557 94.8348 204.057 93.1148 205.407C92.0146 206.253 90.9785 207.179 90.0148 208.177C87.9647 210.368 85.4915 212.12 82.7448 213.327C78.9675 215.088 74.7173 215.562 70.6448 214.677C68.2896 214.179 66.0734 213.167 64.1546 211.713C62.2358 210.259 60.6618 208.4 59.5448 206.267C56.7548 201.047 56.6648 195.597 58.5448 190.057C59.9408 186.098 62.3142 182.555 65.4448 179.757C68.0548 177.337 70.7148 174.967 73.2048 172.437C76.8788 168.606 79.4703 163.868 80.7148 158.707C81.8405 154.44 82.6494 150.094 83.1348 145.707C83.6901 140.638 83.8906 135.535 83.7348 130.437C83.6748 128.197 83.5148 125.957 83.4548 123.717C83.4706 123.394 83.3991 123.071 83.2478 122.785C83.0965 122.498 82.871 122.257 82.5948 122.087C77.3848 118.657 73.0048 114.257 68.3748 110.087C65.2548 107.307 62.1748 104.497 59.0548 101.717C55.0548 98.1774 51.0548 94.6574 47.1348 91.1174C38.0748 83.084 29.0348 75.0174 20.0148 66.9174C14.1815 61.6907 8.37148 56.4407 2.58481 51.1674C1.91987 50.5332 1.32939 49.8253 0.824809 49.0574C0.285316 48.1698 0 47.1511 0 46.1124C0 45.0737 0.285316 44.055 0.824809 43.1674C0.927008 42.9964 1.06452 42.8492 1.22817 42.7355C1.39181 42.6219 1.57782 42.5446 1.77376 42.5086C1.96969 42.4726 2.17105 42.4789 2.36438 42.527C2.5577 42.575 2.73854 42.6638 2.89481 42.7874C4.01481 43.4874 5.12481 44.2274 6.22481 44.9974L41.8548 68.7874L67.8548 86.1374C71.2548 88.4074 74.6648 90.6574 78.0148 92.9974C78.922 93.6855 79.7931 94.4198 80.6248 95.1974L82.2048 96.5274L82.6148 96.4874ZM147.725 160.717C147.866 160.424 147.924 160.097 147.892 159.772C147.861 159.448 147.74 159.138 147.545 158.877C145.969 155.496 144.172 152.222 142.165 149.077C139.911 145.562 137.166 142.387 134.015 139.647C129.724 136.211 124.949 133.428 119.845 131.387C115.845 129.757 111.675 128.967 107.555 127.907C102.805 126.677 97.9448 125.907 93.3148 124.167C91.0825 123.375 88.9158 122.409 86.8348 121.277C83.7336 119.535 80.8271 117.467 78.1648 115.107C75.7348 112.947 73.3348 110.747 70.9248 108.577C69.3548 107.157 67.7848 105.757 66.2348 104.327C65.9115 103.973 65.6109 103.599 65.3348 103.207L66.9448 103.287C67.5148 103.287 68.0848 103.367 68.6448 103.287C69.8103 103.207 70.9449 102.878 71.9715 102.32C72.9982 101.763 73.8929 100.991 74.5948 100.057C75.2748 99.2574 76.0248 98.5074 76.7748 97.7674C76.9048 97.6374 77.2048 97.6674 77.6748 97.5674C77.5006 97.9475 77.3001 98.3151 77.0748 98.6674C76.7915 99.009 76.63 99.4351 76.6155 99.8787C76.601 100.322 76.7344 100.758 76.9948 101.117C77.1948 101.457 77.4248 101.787 77.5948 102.117C77.6937 102.443 77.7607 102.778 77.7948 103.117C76.9148 102.587 76.3048 102.177 75.6548 101.847C75.3459 101.762 75.0243 101.731 74.7048 101.757C74.7048 102.077 74.7048 102.477 74.8348 102.697C75.3648 103.397 75.9948 104.017 76.5548 104.697C76.7848 104.977 77.2048 105.227 76.7948 105.807C76.4869 105.709 76.1889 105.582 75.9048 105.427C75.1348 104.917 74.3948 104.377 73.6348 103.847C73.3148 103.627 72.9648 103.257 72.6348 103.687C72.3048 104.117 72.6948 104.397 72.9648 104.687L73.4148 105.167C74.2848 106.047 75.1648 106.897 76.0048 107.797C76.4862 108.179 76.8044 108.73 76.8948 109.337C75.9295 108.96 75.0313 108.43 74.2348 107.767C73.2348 106.947 72.2348 106.107 71.1648 105.277C70.8248 105.007 70.4748 104.727 70.0148 105.067C70.5848 106.727 81.8148 116.537 83.6048 116.967C83.9648 116.627 83.7648 116.307 83.5148 116.057C83.0848 115.627 82.5948 115.237 82.1548 114.817C81.1748 113.871 80.2015 112.917 79.2348 111.957C79.0893 111.77 78.9683 111.565 78.8748 111.347C79.325 111.354 79.7633 111.493 80.1348 111.747C80.9348 112.287 81.6948 112.887 82.5048 113.417C82.9448 113.697 83.4048 114.197 84.0748 113.677C83.7048 112.147 81.6748 111.677 81.4948 109.677C82.1348 110.067 82.4948 110.327 82.9448 110.557C83.4643 110.89 84.0055 111.187 84.5648 111.447C84.8718 111.508 85.1878 111.508 85.4948 111.447C85.4468 111.173 85.3697 110.905 85.2648 110.647C84.9748 110.097 84.3748 109.717 84.2648 108.837C85.1566 109.258 86.0753 109.619 87.0148 109.917C87.8948 110.137 88.8548 109.687 90.0148 110.057C88.6353 110.702 87.4339 111.673 86.5148 112.887C85.9516 113.625 85.5839 114.493 85.4458 115.411C85.3077 116.329 85.4037 117.267 85.7248 118.137C85.8848 118.627 86.1048 119.007 86.6648 118.977C86.7548 118.847 86.8448 118.777 86.8348 118.707C86.8348 118.367 86.7448 118.017 86.6848 117.707C86.4757 116.823 86.5196 115.897 86.8113 115.036C87.1031 114.175 87.631 113.413 88.3348 112.837C88.9959 112.248 89.8016 111.845 90.6696 111.669C91.5375 111.494 92.4366 111.552 93.2748 111.837C94.2588 112.171 95.1205 112.792 95.7491 113.619C96.3778 114.446 96.7447 115.443 96.8028 116.48C96.8608 117.518 96.6073 118.549 96.0749 119.441C95.5425 120.333 94.7554 121.046 93.8148 121.487C93.4548 121.667 93.1048 121.887 92.6848 122.137C92.9894 122.434 93.395 122.604 93.82 122.613C94.2449 122.622 94.6576 122.47 94.9748 122.187C95.7763 121.692 96.4623 121.03 96.9867 120.247C97.511 119.464 97.8616 118.577 98.0148 117.647C98.093 117.435 98.2081 117.239 98.3548 117.067C98.6548 119.117 100.535 119.407 101.975 120.337C100.785 121.127 99.5648 120.067 98.5348 120.767C98.7648 121.677 99.5348 121.717 100.185 121.927C102.475 122.697 104.775 123.417 107.065 124.177C107.342 124.304 107.603 124.462 107.845 124.647C107.585 124.857 107.415 124.907 107.255 124.877C105.615 124.577 103.975 124.277 102.335 123.947C100.695 123.617 99.1548 123.287 97.5648 122.947C97.2048 122.867 96.8448 122.797 96.7848 123.517C97.2787 123.723 97.7827 123.903 98.2948 124.057C103.785 125.437 109.295 126.647 114.715 128.397C117.967 129.322 121.13 130.537 124.165 132.027C125.905 132.957 127.635 133.917 129.365 134.857C132.794 136.662 135.87 139.071 138.445 141.967C139.975 143.662 141.414 145.438 142.755 147.287C144.485 149.767 146.025 152.377 147.635 154.937C147.845 155.277 148.015 155.727 148.515 155.437C149.015 155.147 148.835 154.757 148.645 154.387C148.565 154.227 148.445 154.097 148.355 153.947C147.355 152.267 146.285 150.587 145.275 148.897C145.059 148.495 144.865 148.081 144.695 147.657C145.126 147.776 145.515 148.015 145.815 148.347C146.815 149.347 147.745 150.347 148.715 151.407C148.932 151.682 149.188 151.925 149.475 152.127C149.588 152.164 149.707 152.176 149.825 152.16C149.943 152.144 150.056 152.103 150.155 152.037C150.204 151.949 150.23 151.849 150.23 151.747C150.23 151.646 150.204 151.546 150.155 151.457C149.883 151.109 149.592 150.775 149.285 150.457C148.578 149.806 148.013 149.016 147.625 148.137C147.914 148.209 148.198 148.299 148.475 148.407C149.185 148.747 149.885 149.127 150.595 149.467C151.495 149.907 151.715 149.827 152.455 149.157C153.525 148.157 154.635 147.267 155.725 146.307C155.893 146.129 156.044 145.935 156.175 145.727C155.995 145.597 155.905 145.467 155.795 145.447C155.492 145.431 155.188 145.431 154.885 145.447C150.46 145.445 146.124 144.197 142.375 141.847C139.201 139.763 136.532 136.995 134.565 133.747C133.565 132.187 132.435 130.827 130.485 130.477C129.615 130.327 128.755 130.147 127.885 130.057C124.165 129.647 120.55 128.566 117.215 126.867C112.616 124.546 108.304 121.697 104.365 118.377C98.0248 113.077 91.8348 107.607 85.6048 102.177C83.3848 100.247 81.2448 98.1774 79.0748 96.2374C77.9548 95.2374 77.4048 95.2374 76.4348 96.3474C75.4648 97.4574 74.6048 98.4874 73.6348 99.4974C72.6609 100.606 71.39 101.412 69.9724 101.822C68.5548 102.231 67.0497 102.226 65.6348 101.807C63.6033 101.207 61.7426 100.134 60.2048 98.6774C56.5148 95.4274 52.8648 92.1274 49.2048 88.8474L48.9048 88.5874L35.2848 76.5874C33.4148 74.9274 31.5548 73.2474 29.6648 71.5874C27.2448 69.4774 24.7848 67.4274 22.3848 65.3074C20.6148 63.7374 18.9148 62.0774 17.1648 60.4874C16.1648 59.5774 15.0648 58.7474 14.0448 57.8374C10.4448 54.6074 6.87481 51.3674 3.27481 48.1374C3.05452 48.0069 2.81485 47.9124 2.56481 47.8574C2.54176 48.1825 2.60892 48.5077 2.75891 48.797C2.90889 49.0864 3.13586 49.3288 3.41481 49.4974C8.16814 53.8107 12.9248 58.1207 17.6848 62.4274C23.9048 67.9474 30.1081 73.4707 36.2948 78.9974L50.9148 92.1174C57.4948 98.0107 64.0815 103.901 70.6748 109.787C73.9948 112.737 77.2848 115.727 80.7348 118.517C85.2192 122.16 90.4281 124.805 96.0148 126.277C101.075 127.607 106.185 128.707 111.275 129.937C116.735 131.139 121.982 133.162 126.835 135.937C129.989 137.778 132.913 139.986 135.545 142.517C138.7 145.709 141.363 149.352 143.445 153.327C144.625 155.487 145.695 157.697 146.825 159.877C147.015 160.237 147.075 160.767 147.725 160.717ZM55.0148 84.4274C54.9387 84.0833 54.9368 83.727 55.0092 83.3821C55.0816 83.0372 55.2267 82.7118 55.4348 82.4274C55.7407 81.8393 56.0145 81.2351 56.2548 80.6174C54.5548 80.5074 54.3348 82.3974 52.9648 82.5674C52.9652 82.2943 52.9988 82.0223 53.0648 81.7574C53.2648 81.2674 53.5248 80.8074 53.7448 80.3274C53.9648 79.8474 54.2248 79.4974 53.7448 79.1574C53.2648 78.8174 53.0348 79.2974 52.7448 79.5574C52.4548 79.8174 52.0948 80.2774 51.7448 80.5574C51.4295 80.7248 51.0932 80.8492 50.7448 80.9274L52.0148 77.7074C50.3048 77.4374 50.0848 79.2974 48.6648 79.5574L49.6648 76.3374C49.2148 75.9274 48.8848 75.8174 48.5348 76.2174C48.1848 76.6174 47.8948 76.9474 47.5348 77.2774C47.3698 77.5145 47.1576 77.7151 46.9116 77.8665C46.6655 78.0179 46.3909 78.117 46.1048 78.1574L47.2648 74.6374C45.6448 74.5674 45.4148 76.4974 43.9848 76.6374C43.8148 75.3374 45.2148 74.4274 44.7748 73.1274C43.4948 73.2074 43.3548 74.8474 41.9548 74.9774L42.9548 71.7974C41.6048 71.6674 41.3848 73.1974 40.2048 73.2274L41.0148 70.5974C39.4948 70.0374 39.2748 71.9174 38.0648 71.8774C38.0618 71.6157 38.0853 71.3544 38.1348 71.0974C38.2848 70.5974 38.5348 70.0974 38.6448 69.6074C38.6433 69.4894 38.6167 69.373 38.5667 69.2661C38.5167 69.1592 38.4445 69.0642 38.3548 68.9874C38.2848 68.9274 37.9548 69.0474 37.8148 69.1774C37.4548 69.4974 37.1648 69.9074 36.8148 70.1774C36.6015 70.2954 36.3671 70.3702 36.1248 70.3974C35.6348 69.3974 36.9848 68.6574 36.3748 67.6974C35.3748 67.5974 35.2048 69.0374 34.0348 68.8574L34.6248 66.4774C33.3848 66.1474 33.0648 67.6874 31.9748 67.5274C31.8848 66.5974 32.7648 65.8474 32.2948 64.9474C31.2948 64.6874 31.0148 66.1774 29.8448 65.8874C30.0179 65.3981 30.155 64.8967 30.2548 64.3874C30.2409 64.0683 30.1733 63.7539 30.0548 63.4574C29.7835 63.5349 29.5192 63.6353 29.2648 63.7574C28.8448 63.9974 28.5648 64.6174 27.9048 64.2274L28.2848 61.9974L28.0148 61.8174C27.6348 62.0474 27.2648 62.2874 26.8748 62.4874C26.6648 62.5974 26.2648 62.7574 26.2148 62.6874C26.0424 62.4598 25.9477 62.1829 25.9448 61.8974C25.9805 61.5577 26.0508 61.2227 26.1548 60.8974C25.2848 59.8974 24.6748 61.2574 23.8648 60.9574C23.8492 60.7877 23.8492 60.617 23.8648 60.4474C23.9648 59.9974 24.3648 59.4474 23.7848 59.1574C23.5548 59.0274 23.0848 59.2874 22.7848 59.4174C22.1548 59.6574 21.8448 59.4674 21.8448 58.8174C21.8448 58.6874 21.9548 58.5474 21.9248 58.4374C21.8804 58.1228 21.7527 57.8259 21.5548 57.5774C21.4148 57.4674 20.9748 57.5774 20.7648 57.7574C20.5548 57.9374 20.1048 58.3774 19.5548 57.9274C19.5548 57.6774 19.6248 57.3874 19.6648 57.0874C19.7848 56.1974 19.5148 55.9774 18.6648 56.2474C18.3148 56.3574 17.9648 56.4274 17.5848 56.5174C17.539 56.3332 17.5056 56.1461 17.4848 55.9574C17.4848 54.5874 17.4848 54.5874 16.1548 55.0374C15.6748 55.2074 15.4348 55.0374 15.3348 54.5174C15.0148 52.9974 14.9648 52.9974 13.5148 53.3074C13.4384 53.3162 13.3612 53.3162 13.2848 53.3074C13.1249 53.0796 12.9908 52.8347 12.8848 52.5774C12.4948 51.2974 12.5048 51.2974 11.1948 51.5774C11.0519 51.5928 10.9077 51.5928 10.7648 51.5774C10.666 51.3911 10.5824 51.1971 10.5148 50.9974C10.2248 49.9274 10.2248 49.9074 9.04481 49.8474C8.93033 49.8528 8.81595 49.8348 8.70869 49.7944C8.60144 49.754 8.50359 49.6921 8.42115 49.6125C8.33872 49.5329 8.27346 49.4372 8.22937 49.3314C8.18529 49.2257 8.16331 49.112 8.16481 48.9974C8.15213 48.7718 8.05415 48.5595 7.89074 48.4035C7.72732 48.2476 7.51071 48.1596 7.28481 48.1574C6.41481 48.1574 6.14481 47.6374 5.68481 47.0774C5.22481 46.5174 4.50481 46.4574 3.93481 46.0774C3.73481 45.9574 3.67481 45.6274 3.49481 45.4274C3.17481 45.0674 2.85481 44.6874 2.26481 44.9074C2.00481 45.4274 2.26481 45.7374 2.65481 46.0274C3.04481 46.3174 3.43481 46.5974 3.79481 46.9174C7.68481 50.3474 11.5448 53.8074 15.4548 57.2074C23.1148 63.874 30.7815 70.5174 38.4548 77.1374C46.1348 83.7774 53.8348 90.3974 61.4548 97.0674C62.756 98.1801 64.2153 99.0934 65.7848 99.7774C66.7731 100.155 67.8484 100.242 68.8846 100.029C69.9208 99.8169 70.8749 99.3132 71.6348 98.5774C72.7281 97.3774 73.7981 96.1574 74.8448 94.9174C75.1456 94.5159 75.4195 94.095 75.6648 93.6574C75.1548 93.1674 74.8348 93.2074 74.4448 93.6574C73.5348 94.6574 72.5948 95.5374 71.6648 96.4574C71.4048 96.7174 71.1048 96.9374 70.8248 97.1774L70.5648 96.9774C70.9348 95.1574 72.5648 93.9274 73.0548 92.1574C72.2948 91.7374 72.0548 92.4174 71.7448 92.7374C71.0648 93.4174 70.4648 94.1874 69.7948 94.8774C69.5216 95.1017 69.2229 95.2931 68.9048 95.4474C69.0048 93.5474 70.4948 92.3374 70.7448 90.5674C70.4102 90.6262 70.1005 90.7828 69.8548 91.0174C69.0948 91.8074 68.3748 92.6374 67.6248 93.4374C67.3148 93.7674 67.0348 94.2174 66.3248 93.8374C66.9448 92.2474 68.1948 91.0174 68.7848 89.1674C68.2623 89.345 67.801 89.6675 67.4548 90.0974L65.6648 92.0274C65.4248 92.2874 65.1648 92.5474 64.6648 92.1174L66.9348 87.9974L66.6548 87.7774C65.1248 88.3974 64.5448 90.2874 62.8948 90.7774C63.1767 90.0476 63.5109 89.3391 63.8948 88.6574C64.2648 87.9674 65.0348 87.4274 64.7248 86.3274C64.4392 86.4633 64.1678 86.6275 63.9148 86.8174C63.1848 87.5074 62.4848 88.2474 61.7448 88.9274C61.5296 89.0723 61.2936 89.1836 61.0448 89.2574C60.9965 88.9576 61.053 88.6503 61.2048 88.3874C61.6648 87.4874 62.2048 86.6074 62.5848 85.6874C62.6848 85.4674 62.5848 85.1374 62.5048 84.8574C62.2348 84.9274 61.8848 84.9274 61.7148 85.0974C61.0648 85.7474 60.4848 86.4674 59.8448 87.0974C59.6381 87.2594 59.4091 87.3908 59.1648 87.4874L59.0148 87.3474L60.7048 83.7874C60.1348 83.1774 59.7048 83.4674 59.3748 83.7874C58.8448 84.3174 58.3748 84.8974 57.8448 85.4274C57.532 85.6513 57.1969 85.8423 56.8448 85.9974C57.0748 85.3674 57.1648 84.9974 57.3148 84.7574C57.6248 84.1274 58.0148 83.5374 58.3148 82.8874C58.3771 82.7386 58.405 82.5777 58.3963 82.4166C58.3876 82.2556 58.3427 82.0986 58.2648 81.9574C57.9348 81.5974 57.5348 81.8474 57.2648 82.1474C56.9948 82.4474 56.5248 82.8974 56.1648 83.2774L55.0148 84.4274ZM87.2348 85.4274V84.9974C87.4749 84.9354 87.7188 84.8886 87.9648 84.8574C89.3248 84.7574 90.6748 84.6574 92.0348 84.5874C93.3948 84.5174 94.7548 84.4974 96.1148 84.4574C96.4948 84.4574 96.9248 84.4574 97.0548 83.8074C96.7655 83.6689 96.4597 83.5681 96.1448 83.5074C93.6448 83.3474 91.1448 83.2274 88.6548 83.0874C88.3048 83.0874 87.9548 82.9974 87.5148 82.9474C87.8948 82.0874 88.5148 82.3274 88.9748 82.2974C91.3848 82.1274 93.7948 82.0074 96.2048 81.8574C96.5348 81.8574 96.9248 81.8574 97.0248 81.2974C96.8008 81.1947 96.566 81.1176 96.3248 81.0674C94.0948 80.8674 91.8548 80.7174 89.6348 80.4874C89.1348 80.4374 88.4748 80.6674 88.0148 79.8474C88.4848 79.7874 88.8548 79.7074 89.2148 79.6874L96.0648 79.4374C96.4548 79.4374 96.8948 79.4374 96.9348 78.6874C96.5148 78.6074 96.0648 78.4774 95.6048 78.4374C93.5048 78.2374 91.4048 78.0574 89.3048 77.8474C88.9648 77.8474 88.4848 77.9374 88.3048 77.2874C88.6648 77.2374 88.9848 77.1674 89.3048 77.1474C91.4948 77.0374 93.6948 76.9374 95.8848 76.8174C96.2848 76.8174 96.7748 76.8174 96.9748 76.1174C96.55 76.0114 96.1193 75.9313 95.6848 75.8774C93.8848 75.7674 92.0848 75.6974 90.2848 75.5874C89.973 75.6366 89.6539 75.6065 89.3568 75.4999C89.0597 75.3933 88.7942 75.2136 88.5848 74.9774C89.1648 74.8874 89.5848 74.7874 89.9848 74.7574C91.9848 74.6274 93.9848 74.5074 95.9848 74.3874C96.3648 74.3874 96.6748 74.2474 96.6348 73.5974C95.3648 73.4674 94.0748 73.2574 92.7748 73.2374C90.2848 73.1874 89.6248 73.1074 88.7748 72.4074L92.0148 72.2074C93.4548 72.0974 94.9048 72.0074 96.3448 71.8574C96.5348 71.8574 96.6948 71.5774 96.8748 71.4274C96.7248 71.2874 96.6048 71.0974 96.4348 71.0274C96.2238 70.9653 96.0047 70.935 95.7848 70.9374C94.1648 70.7774 92.5448 70.6274 90.9348 70.4374C90.402 70.3463 89.8745 70.2261 89.3548 70.0774V69.7374C89.7148 69.7374 90.0848 69.6174 90.4448 69.5974L95.8348 69.2474C96.2048 69.2474 96.6548 69.3074 96.8348 68.6174C96.4789 68.4347 96.1031 68.2937 95.7148 68.1974C94.0648 67.9774 92.3948 67.8074 90.7148 67.5974C90.3148 67.5474 89.8148 67.6874 89.4948 66.9774C89.9748 66.9174 90.3848 66.8674 90.7848 66.8274L96.0448 66.4274C96.4248 66.4274 96.7448 66.3074 96.6648 65.6674C96.1498 65.5112 95.6254 65.3877 95.0948 65.2974C93.7848 65.1474 92.4748 65.0674 91.1648 64.9474C90.7348 64.9474 90.1648 65.0674 89.8948 64.4674C90.6769 64.1346 91.5273 63.994 92.3748 64.0574C93.5548 63.9774 94.7448 63.9174 95.9248 63.8574C96.3348 63.8574 96.7348 63.8574 96.6948 63.1074C95.6948 62.8774 94.6248 62.5774 93.5548 62.4074C92.4998 62.4045 91.4572 62.1796 90.4948 61.7474C90.8015 61.578 91.1446 61.4853 91.4948 61.4774C92.9848 61.3874 94.4948 61.2974 95.9748 61.2174C96.4948 61.2174 96.8548 61.0774 96.6648 60.3374L93.7548 59.7174C92.7548 59.5074 91.7548 59.7174 90.5648 58.9074C91.1748 58.8074 91.5048 58.7374 91.8248 58.7174L95.6448 58.5274C96.0848 58.5274 96.5448 58.5274 96.5848 57.7774C94.8348 56.9974 92.8348 57.1174 91.0048 56.4774C91.1958 56.303 91.4376 56.1943 91.6948 56.1674C93.0048 56.0674 94.3248 55.9874 95.6348 55.9074H96.1548C96.3549 55.7792 96.5395 55.6282 96.7048 55.4574C96.5583 55.2654 96.3868 55.0939 96.1948 54.9474C95.9904 54.8682 95.774 54.8242 95.5548 54.8174L91.7848 54.1874C91.5785 54.1324 91.3777 54.0588 91.1848 53.9674C92.1848 53.6674 93.1248 53.6374 94.0548 53.4474C94.9848 53.2574 96.0048 53.6974 96.8248 52.5974C96.5045 52.4309 96.1698 52.2937 95.8248 52.1874C94.7048 51.9574 93.5748 51.7774 92.4548 51.5574C92.163 51.4848 91.8758 51.3946 91.5948 51.2874C91.8534 51.0627 92.1823 50.9353 92.5248 50.9274L95.6848 50.7474C96.1348 50.7474 96.5848 50.6974 96.6148 49.9774C95.1648 49.2074 93.4548 49.3974 91.8948 48.8774C92.1812 48.7001 92.5013 48.5843 92.8348 48.5374C93.8348 48.3874 94.9248 48.2574 95.9648 48.1074C96.3648 48.0474 96.7748 47.9874 96.6948 47.3474C96.0193 46.9659 95.2604 46.7564 94.4848 46.7374C93.7248 46.6074 92.8848 46.8674 92.0448 46.1574L94.5548 45.7574C95.0358 45.7135 95.5113 45.6231 95.9748 45.4874C96.0967 45.4173 96.2025 45.3223 96.2852 45.2086C96.3679 45.0948 96.4257 44.965 96.4548 44.8274C96.4548 44.7074 96.1448 44.4174 95.9348 44.3674C95.4248 44.2574 94.9348 44.2674 94.3648 44.1874C93.7948 44.1074 93.0448 43.9474 92.3648 43.8174V43.5374C92.5879 43.4618 92.8149 43.3984 93.0448 43.3474C93.9548 43.1874 94.8748 43.0774 95.7748 42.8874C95.9123 42.8512 96.0405 42.7861 96.1509 42.6964C96.2613 42.6067 96.3512 42.4946 96.4148 42.3674C96.5548 41.9074 96.1448 41.7774 95.7848 41.7174C95.0548 41.5874 94.3048 41.5074 93.5748 41.3774C93.267 41.3071 92.9633 41.2203 92.6648 41.1174C92.8852 40.867 93.1856 40.7009 93.5148 40.6474C94.2448 40.5074 94.9848 40.3674 95.7148 40.2574C96.0948 40.2074 96.5048 40.0974 96.4348 39.6874C96.4348 39.4474 96.0048 39.1574 95.7248 39.0774C95.1748 38.9274 94.5948 38.9374 94.0348 38.8374C93.6848 38.7774 93.3448 38.6574 93.0348 38.5674V38.2074C93.7548 38.1074 94.4648 38.0174 95.1848 37.8974C95.6848 37.8174 96.4248 37.8974 96.4748 37.2574C96.5248 36.6174 95.7148 36.5674 95.2048 36.4174C94.6948 36.2674 93.9948 36.1274 93.3848 35.9874V35.6574C94.0048 35.5074 94.6248 35.3374 95.2548 35.2174C95.7248 35.1274 96.3348 35.2174 96.3948 34.5774C96.4548 33.9374 95.8048 33.9374 95.3948 33.8074L93.7248 33.3074C93.9548 32.9274 94.1548 32.7574 94.3748 32.7074C94.8448 32.5974 95.3748 32.5974 95.8048 32.4674C96.0584 32.3408 96.2884 32.1717 96.4848 31.9674C96.2948 31.7174 96.1448 31.3774 95.8948 31.2374C95.5238 31.1059 95.1425 31.0055 94.7548 30.9374C94.5042 30.8318 94.2633 30.7047 94.0348 30.5574C94.6385 30.248 95.2761 30.0098 95.9348 29.8474C96.0693 29.7975 96.1906 29.7175 96.2894 29.6135C96.3882 29.5095 96.4619 29.3842 96.5048 29.2474C96.5048 29.0374 96.2448 28.7374 96.0148 28.5874C95.7324 28.4672 95.4371 28.38 95.1348 28.3274C94.8348 28.2274 94.5448 28.0974 94.2048 27.9574C94.7348 26.9574 96.2848 27.6674 96.5748 26.0674L94.4048 25.5274C94.9248 24.6674 96.3348 25.0674 96.4948 23.7874L94.6748 23.0674C94.8348 22.3274 95.4248 22.3774 95.8948 22.1774C96.0405 22.1032 96.1697 22.0003 96.2746 21.8748C96.3794 21.7494 96.4577 21.604 96.5048 21.4474C96.5048 21.3074 96.1648 21.0174 95.9348 20.8674C95.6374 20.666 95.3303 20.4791 95.0148 20.3074V19.9974C95.3666 19.9312 95.7047 19.8061 96.0148 19.6274C96.3403 19.3669 96.5863 19.0205 96.7248 18.6274C96.8548 18.1674 96.4448 17.9574 96.0448 17.7974C95.7759 17.6707 95.5154 17.5271 95.2648 17.3674C97.4648 15.7074 96.7748 15.8074 95.7248 14.5974C95.9048 14.3074 96.0848 13.9674 96.3048 13.6574C96.6948 13.0974 96.8748 12.5874 96.2348 12.0474C95.8148 11.6974 95.9248 11.2674 96.2348 10.8874C96.3305 10.8127 96.4098 10.7193 96.468 10.6128C96.5262 10.5063 96.5621 10.3891 96.5733 10.2683C96.5845 10.1475 96.571 10.0256 96.5334 9.91025C96.4958 9.79487 96.435 9.6884 96.3548 9.59737C96.1983 9.40508 96.1188 9.1615 96.1317 8.91389C96.1446 8.66628 96.2491 8.43231 96.4248 8.25737C96.5943 8.05148 96.6934 7.79678 96.7078 7.53051C96.7222 7.26424 96.6511 7.00034 96.5048 6.77737C96.403 6.54043 96.3505 6.28525 96.3505 6.02737C96.3505 5.76949 96.403 5.51431 96.5048 5.27737C96.6776 4.46948 96.7448 3.64257 96.7048 2.81737C96.7048 2.65737 96.3848 2.49737 96.1048 2.23737C95.9259 2.57752 95.7851 2.93636 95.6848 3.30737C92.0248 32.114 88.3581 60.964 84.6848 89.8574C85.1962 89.9622 85.714 90.0324 86.2348 90.0674C87.7748 90.0674 89.3115 90.024 90.8448 89.9374C91.5884 89.9012 92.3296 89.8244 93.0648 89.7074C93.5348 89.6374 94.0148 89.4874 94.0648 88.7074C93.7358 88.6254 93.4018 88.5652 93.0648 88.5274C91.4448 88.4574 89.8248 88.4174 88.1948 88.3474C87.6748 88.3474 87.0848 88.4374 86.6148 87.7674C86.8543 87.6977 87.0982 87.6442 87.3448 87.6074C89.9748 87.4274 92.6048 87.2674 95.2348 87.0774C95.6648 87.0774 96.3948 87.3174 96.4148 86.6274C96.4348 85.9374 95.7048 85.9974 95.1848 85.9574H94.7848C92.8548 85.8774 90.9248 85.8074 88.9948 85.7074C88.3948 85.6274 87.8148 85.5074 87.2248 85.4174L87.2348 85.4274ZM187.745 155.997C187.502 155.386 187.225 154.788 186.915 154.207C185.055 151.043 182.351 148.46 179.105 146.747C171.635 142.817 164.165 142.567 156.815 147.037C155.008 148.102 153.436 149.522 152.193 151.212C150.951 152.902 150.063 154.825 149.585 156.867C148.971 159.235 148.893 161.709 149.357 164.11C149.82 166.511 150.814 168.779 152.265 170.747C154.993 174.689 159.016 177.552 163.635 178.837C170.025 180.697 176.155 180.217 181.825 176.537C183.663 175.431 185.252 173.955 186.49 172.203C187.727 170.45 188.587 168.46 189.015 166.357C189.837 162.863 189.387 159.19 187.745 155.997ZM82.1748 211.567C82.6679 211.373 83.1488 211.15 83.6148 210.897C88.3693 208.201 91.9195 203.796 93.5448 198.577C94.3136 196.328 94.6135 193.945 94.426 191.575C94.2386 189.205 93.5677 186.898 92.4548 184.797C91.4277 182.816 89.9643 181.094 88.175 179.76C86.3857 178.426 84.317 177.516 82.1248 177.097C77.8648 176.19 73.4191 176.953 69.7048 179.227C65.3981 181.634 62.106 185.516 60.4348 190.157C58.5348 195.307 58.5248 200.507 61.2048 205.467C62.8896 208.702 65.754 211.166 69.2048 212.347C73.4628 213.801 78.1217 213.521 82.1748 211.567ZM189.375 175.117C188.375 175.727 187.465 175.457 186.675 175.607C185.885 175.757 184.995 175.257 184.395 176.237C185.035 177.037 185.925 176.867 186.715 176.897C188.555 176.977 190.405 176.977 192.245 177.027C192.54 177.061 192.831 177.121 193.115 177.207V177.507C192.748 177.619 192.374 177.703 191.995 177.757C189.855 177.907 187.705 178.057 185.555 178.157C184.415 178.207 183.265 178.157 182.125 178.157C181.695 178.157 181.125 178.097 181.055 178.987C181.394 179.114 181.746 179.204 182.105 179.257C183.865 179.337 185.625 179.497 187.375 179.417C191.805 179.217 196.225 178.897 200.645 178.627H202.125V178.917C201.799 179.037 201.464 179.134 201.125 179.207C199.865 179.407 198.605 179.597 197.345 179.747C194.345 180.087 191.405 180.467 188.435 180.747C184.18 180.983 179.914 180.936 175.665 180.607C175.23 180.552 174.79 180.552 174.355 180.607C174.135 180.607 173.955 180.927 173.755 181.107C173.915 181.287 173.965 181.397 174.035 181.417C174.364 181.507 174.698 181.577 175.035 181.627C180.939 182.27 186.895 182.297 192.805 181.707C197.004 181.326 201.181 180.718 205.315 179.887C209.839 179.006 214.31 177.868 218.705 176.477C219.795 176.137 220.865 175.737 221.925 175.327C222.091 175.289 222.247 175.216 222.383 175.114C222.52 175.011 222.634 174.882 222.717 174.733C222.801 174.585 222.853 174.421 222.87 174.251C222.887 174.081 222.868 173.91 222.815 173.748C222.762 173.586 222.676 173.437 222.563 173.31C222.449 173.182 222.31 173.08 222.155 173.01C222 172.939 221.832 172.902 221.661 172.9C221.491 172.897 221.322 172.931 221.165 172.997C221.038 173.031 220.915 173.075 220.795 173.127C217.526 174.413 214.154 175.416 210.715 176.127C206.683 177.084 202.498 177.213 198.415 176.507C195.575 175.937 192.895 174.977 190.975 172.627C190.585 172.157 190.305 171.627 189.975 171.107C189.475 170.397 188.925 170.377 188.415 171.107C187.905 171.837 187.585 172.347 187.195 172.987C186.985 173.337 186.815 173.707 186.555 174.197L189.375 175.117ZM90.2148 179.677C90.2056 179.342 90.1755 179.009 90.1248 178.677C89.6348 176.587 89.0248 174.517 88.6348 172.417C87.6588 166.242 87.6993 159.949 88.7548 153.787C89.421 149.403 90.3459 145.062 91.5248 140.787C91.6881 140.113 91.7119 139.412 91.5948 138.727C91.5719 138.545 91.5122 138.37 91.4193 138.212C91.3263 138.054 91.2021 137.916 91.0543 137.808C90.9064 137.699 90.738 137.622 90.5593 137.58C90.3806 137.539 90.1953 137.535 90.0148 137.567C89.0148 137.567 88.4548 138.157 88.2848 139.367C87.7748 142.977 87.2848 146.587 86.8048 150.187C86.5448 151.967 86.2548 153.747 85.8048 155.487C85.0948 158.337 84.3048 161.167 83.4648 163.977C82.9448 165.697 82.3248 167.397 81.6448 169.067C80.9048 170.887 80.0548 172.667 79.2448 174.467C79.1757 174.579 79.1346 174.706 79.1248 174.837C79.1248 175.037 79.1848 175.357 79.2948 175.397C79.4069 175.436 79.5262 175.449 79.6439 175.435C79.7616 175.421 79.8747 175.381 79.9748 175.317C80.2951 174.96 80.5582 174.555 80.7548 174.117C81.5048 172.387 82.2048 170.637 82.9548 168.907C83.2048 168.337 83.5548 167.807 83.8648 167.257L84.1448 167.347C83.9848 168.347 83.8548 169.347 83.6548 170.347C83.3448 171.987 82.9748 173.607 82.6548 175.247C82.6461 175.386 82.6706 175.524 82.7263 175.651C82.782 175.778 82.8672 175.89 82.9748 175.977C83.3548 176.187 83.6448 175.977 83.7548 175.537C83.9648 174.817 84.1348 174.097 84.3648 173.377C84.5248 172.857 84.7448 172.377 84.9348 171.857H85.2748C85.2748 172.307 85.3748 172.767 85.4148 173.217C85.4948 174.217 85.5648 175.217 85.6248 176.217C85.635 176.459 85.7113 176.693 85.8453 176.894C85.9793 177.095 86.1659 177.255 86.3848 177.357C87.3848 177.937 88.3148 178.577 89.2848 179.177C89.5814 179.362 89.8886 179.529 90.2048 179.677H90.2148ZM98.0648 3.99737C97.9723 4.28083 97.9054 4.57199 97.8648 4.86737C97.9181 11.6207 97.9681 18.3874 98.0148 25.1674C98.0148 28.5474 98.1448 31.9274 98.1948 35.3074C98.2448 38.6874 98.2548 42.3074 98.3248 45.8474C98.3748 48.5674 98.5148 51.2874 98.5548 54.0174C98.6448 59.3774 98.6848 64.7374 98.7448 70.0874C98.7448 73.8174 98.8748 77.5574 98.8948 81.2874C98.944 82.6875 98.8737 84.0892 98.6848 85.4774C98.4234 86.9994 97.698 88.4034 96.6078 89.4972C95.5176 90.591 94.116 91.321 92.5948 91.5874C91.8622 91.725 91.1199 91.8052 90.3748 91.8274C88.7948 91.8274 87.2148 91.8274 85.6348 91.8874C85.0448 91.8874 84.4348 91.8874 84.5048 92.9674C84.979 93.0708 85.4604 93.1377 85.9448 93.1674C88.6115 93.1674 91.2781 93.1374 93.9448 93.0774C95.0448 93.0774 96.1448 92.9774 97.2348 92.9074C97.6348 92.9074 98.0548 92.8374 98.0248 92.1774L96.7948 91.5574C96.8956 91.2521 97.0943 90.9886 97.36 90.8078C97.6258 90.627 97.9439 90.539 98.2648 90.5574C98.8448 90.6174 98.8848 91.2074 98.8948 91.7074C99.0148 95.7074 99.1748 99.6074 99.2348 103.567C99.2348 106.027 99.2348 108.477 99.1348 110.937C99.1348 111.497 99.2648 111.777 99.9648 111.677C100.05 111.305 100.113 110.927 100.155 110.547C100.245 109.017 100.385 107.477 100.365 105.947C100.298 99.134 100.205 92.324 100.085 85.5174C99.9181 75.324 99.7448 65.1307 99.5648 54.9374C99.4381 47.5574 99.3181 40.1774 99.2048 32.7974C99.1381 26.264 99.0415 19.7574 98.9148 13.2774C98.9148 10.9474 98.8448 8.61737 98.7748 6.27737C98.8225 5.86881 98.784 5.45478 98.6617 5.06204C98.5394 4.6693 98.3361 4.3066 98.0648 3.99737ZM85.6848 124.367C85.5448 124.617 85.4348 124.727 85.4248 124.837C85.1802 127.513 85.5672 130.209 86.5548 132.707C87.0151 133.953 87.8545 135.023 88.9548 135.767C90.5348 136.767 90.9548 136.767 92.2548 135.397C93.8148 133.837 94.3448 131.777 94.9348 129.767C95.2948 128.557 95.1248 128.357 93.9348 127.877L88.4648 125.597C87.5848 125.217 86.6748 124.807 85.6848 124.367ZM86.0148 134.897C85.3848 135.357 85.5648 135.987 85.5548 136.517C85.4144 143.554 84.5294 150.557 82.9148 157.407C82.1169 160.971 80.8208 164.405 79.0648 167.607C77.3996 170.444 75.3651 173.046 73.0148 175.347C72.6948 175.667 72.1848 175.897 72.4048 176.697C72.8448 176.527 73.4048 176.487 73.6648 176.197C74.9981 174.864 76.3315 173.461 77.6648 171.987C79.3421 170.005 80.6648 167.749 81.5748 165.317C82.5629 162.933 83.3979 160.488 84.0748 157.997C85.0656 153.988 85.7575 149.91 86.1448 145.797C86.5375 142.703 86.7279 139.586 86.7148 136.467C86.6948 135.877 86.7448 135.297 86.0148 134.897ZM93.4548 202.687C93.6448 202.687 93.7448 202.767 93.8148 202.747C94.7245 202.355 95.7151 202.186 96.7035 202.255C97.6919 202.325 98.6492 202.631 99.4948 203.147C100.975 204.027 102.385 203.417 103.155 201.747C103.925 200.077 103.625 198.537 102.225 197.747C101.712 197.498 101.154 197.355 100.585 197.327C99.0524 197.134 97.6367 196.408 96.5848 195.277C96.3548 195.047 96.0748 194.857 95.5848 194.467C95.3248 196.217 94.8848 197.687 94.7448 199.287H95.9748C96.992 199.285 97.9848 199.599 98.8148 200.187C99.8948 200.927 100.265 200.887 101.375 200.037C101.465 199.967 101.615 200.037 101.795 199.967C101.96 200.28 102.01 200.641 101.935 200.987C101.86 201.333 101.665 201.641 101.385 201.857C101.125 202.068 100.8 202.184 100.465 202.184C100.13 202.184 99.8049 202.068 99.5448 201.857C97.8248 200.707 96.0148 201.047 94.2148 201.537C93.7048 201.637 93.2148 201.907 93.4848 202.677L93.4548 202.687ZM84.6048 94.9074C84.8082 95.1076 85.0581 95.2544 85.332 95.3347C85.6059 95.4149 85.8955 95.4262 86.1748 95.3674C89.8148 95.3074 93.4548 95.2374 97.0948 95.1674C97.5648 95.1674 97.9748 95.0674 98.0148 94.3974C97.4071 94.0572 96.6983 93.9438 96.0148 94.0774C93.5548 94.0774 91.1048 94.1674 88.6448 94.2074H85.6448C85.1748 94.1974 84.5948 94.1474 84.6048 94.9074ZM84.6848 96.9974C84.9048 97.6374 85.3348 97.6574 85.7948 97.6474L96.5848 97.3774C96.9209 97.3823 97.2564 97.3487 97.5848 97.2774C97.6705 97.23 97.7446 97.1641 97.8016 97.0846C97.8587 97.005 97.8974 96.9137 97.9148 96.8174C97.9148 96.7174 97.7448 96.5174 97.6048 96.4674C97.3927 96.4356 97.177 96.4356 96.9648 96.4674H92.0948C90.2548 96.4674 88.4048 96.4674 86.5648 96.5574C85.9048 96.4552 85.2309 96.6129 84.6848 96.9974ZM89.6048 117.627C90.7248 116.737 91.9748 115.777 93.1748 114.767C93.2843 114.704 93.3707 114.608 93.4214 114.493C93.472 114.377 93.4843 114.248 93.4563 114.125C93.4283 114.002 93.3616 113.891 93.2659 113.809C93.1703 113.726 93.0507 113.677 92.9248 113.667C92.2152 113.474 91.475 113.42 90.7448 113.507C89.9875 113.729 89.3325 114.21 88.8953 114.867C88.4581 115.523 88.2667 116.313 88.3548 117.097C88.5248 117.797 88.8748 117.997 89.6048 117.617V117.627ZM92.9548 119.807C93.6223 119.511 94.1769 119.008 94.5369 118.372C94.897 117.737 95.0435 117.002 94.9548 116.277C94.8048 115.557 94.4048 115.277 93.8548 115.717C92.6148 116.627 91.4048 117.577 90.2448 118.577C89.7248 119.027 89.8748 119.477 90.5348 119.777C91.3115 120.082 92.1732 120.089 92.9548 119.797V119.807ZM85.7448 98.9174L85.6248 99.2574C85.8448 99.4174 86.0448 99.6774 86.2848 99.7174C86.8879 99.832 87.501 99.8856 88.1148 99.8774C91.0015 99.804 93.8881 99.7074 96.7748 99.5874C97.2648 99.5874 98.0748 99.7174 98.0648 99.0574C98.0648 98.2074 97.2148 98.5574 96.7048 98.5574C94.1715 98.5574 91.6381 98.6007 89.1048 98.6874C88.0148 98.7274 86.8548 98.8374 85.7448 98.9174ZM88.0948 101.407V101.787C88.3248 101.887 88.5448 102.077 88.7748 102.067C91.6615 102.001 94.5515 101.911 97.4448 101.797C97.6248 101.797 97.7948 101.607 98.1748 101.387C97.8555 101.241 97.5198 101.134 97.1748 101.067C94.1406 100.969 91.1032 101.082 88.0848 101.407H88.0948ZM98.0948 103.727L98.0248 103.387C97.7886 103.289 97.5393 103.225 97.2848 103.197C95.1448 103.271 93.0048 103.361 90.8648 103.467C90.7348 103.467 90.6148 103.647 90.4748 103.757C91.0848 104.337 91.0848 104.327 91.8448 104.307C92.9848 104.307 94.1248 104.257 95.2548 104.207C95.9548 104.207 96.6548 104.137 97.3548 104.057C97.6129 103.984 97.8589 103.872 98.0848 103.727H98.0948ZM93.0148 105.997C94.4675 106.377 95.9839 106.445 97.4648 106.197C97.6948 106.197 97.8848 105.887 98.1348 105.677C96.4413 105.2 94.6357 105.313 93.0148 105.997ZM95.8148 108.437C96.0802 108.659 96.3953 108.813 96.7332 108.886C97.071 108.959 97.4216 108.949 97.7548 108.857C97.8848 108.857 98.0448 108.567 98.0748 108.397C98.1048 108.227 97.9048 108.077 97.7748 108.047C97.4321 107.946 97.0695 107.933 96.7201 108.008C96.3708 108.083 96.0458 108.244 95.7748 108.477L95.8148 108.437Z" fill="white"/>
<path d="M184.885 157.107C187.055 162.237 186.585 167.107 182.885 171.377C180.56 174.052 177.379 175.836 173.885 176.427C170.639 177.092 167.275 176.885 164.135 175.827C159.871 174.545 156.28 171.64 154.135 167.737C153.014 165.838 152.381 163.689 152.294 161.485C152.207 159.281 152.668 157.09 153.635 155.107C154.646 152.987 156.22 151.184 158.185 149.897C163.355 146.427 168.935 146.027 174.695 148.017C178.398 149.27 181.569 151.737 183.695 155.017C184.165 155.657 184.485 156.377 184.885 157.107ZM177.015 173.587L177.495 173.367C179.118 172.627 180.552 171.527 181.687 170.151C182.822 168.775 183.629 167.158 184.048 165.424C184.466 163.69 184.484 161.883 184.1 160.141C183.717 158.398 182.942 156.766 181.835 155.367C179.747 152.552 176.792 150.5 173.425 149.527C168.325 148.037 163.425 148.417 158.985 151.647C156.602 153.336 154.948 155.864 154.354 158.723C153.76 161.582 154.272 164.56 155.785 167.057C159.855 174.107 169.445 176.997 177.015 173.587Z" fill="white"/>
<path d="M156.275 149.187C155.275 150.467 154.365 151.597 153.555 152.827C152.085 154.981 151.243 157.502 151.125 160.107C151.008 162.597 151.492 165.078 152.536 167.341C153.58 169.603 155.154 171.581 157.125 173.107C159.559 175.215 162.472 176.696 165.609 177.419C168.747 178.142 172.014 178.087 175.125 177.257C178.683 176.509 181.884 174.577 184.205 171.777C186.36 169.119 187.451 165.755 187.265 162.337C187.081 158.535 185.646 154.901 183.185 151.997C182.922 151.711 182.728 151.369 182.615 150.997C182.758 151.034 182.893 151.095 183.015 151.177C186.815 154.957 188.715 159.517 188.015 164.867C187.773 167.061 187.023 169.168 185.823 171.021C184.624 172.873 183.008 174.42 181.105 175.537C178.091 177.497 174.606 178.612 171.015 178.767C167.219 178.917 163.453 178.04 160.115 176.227C157.024 174.624 154.433 172.203 152.625 169.227C151.514 167.459 150.777 165.483 150.457 163.419C150.137 161.356 150.242 159.249 150.765 157.227C151.486 154.314 153.081 151.69 155.335 149.707C155.537 149.541 155.755 149.394 155.985 149.267C156.015 149.167 156.105 149.197 156.275 149.187ZM81.0148 208.657C77.8665 210.188 74.2504 210.449 70.9148 209.387C68.8461 208.729 66.9946 207.522 65.5576 205.895C64.1206 204.268 63.1519 202.282 62.7548 200.147C62.2614 197.972 62.2382 195.717 62.6866 193.532C63.1349 191.347 64.0446 189.283 65.3548 187.477C66.6077 185.528 68.2619 183.869 70.2071 182.61C72.1523 181.351 74.3436 180.522 76.6348 180.177C79.6766 179.661 82.8018 180.297 85.3999 181.961C87.998 183.625 89.8823 186.198 90.6848 189.177C92.0848 194.367 90.8548 199.007 87.7548 203.177C86.0305 205.566 83.7052 207.457 81.0148 208.657ZM81.0748 206.657C83.7411 205.294 85.9488 203.179 87.4242 200.573C88.8996 197.967 89.5778 194.985 89.3748 191.997C89.2719 189.827 88.5038 187.74 87.1746 186.021C85.8455 184.302 84.0196 183.033 81.9448 182.387C80.4472 181.92 78.8717 181.754 77.3095 181.9C75.7474 182.046 74.2298 182.5 72.8448 183.237C70.8553 184.198 69.098 185.578 67.6943 187.284C66.2906 188.99 65.274 190.98 64.7148 193.117C64.155 194.832 63.9812 196.649 64.206 198.438C64.4307 200.227 65.0484 201.945 66.0148 203.467C66.8002 204.749 67.8696 205.833 69.1405 206.636C70.4115 207.439 71.8499 207.939 73.3448 208.097C75.9863 208.382 78.6534 207.885 81.0148 206.667L81.0748 206.657Z" fill="white"/>
<path d="M89.3549 203.897C88.1725 206.041 86.4485 207.838 84.3549 209.107C82.9458 209.914 81.4745 210.606 79.9549 211.177C77.4111 212.174 74.6346 212.421 71.9549 211.887C69.1978 211.447 66.6537 210.137 64.6949 208.147C63.796 207.246 63.0375 206.214 62.4449 205.087C61.334 203.285 60.6309 201.261 60.3849 199.157C60.1601 197.283 60.2446 195.384 60.6349 193.537C60.9953 191.914 61.5318 190.334 62.2349 188.827C63.5188 186.124 65.4282 183.766 67.8049 181.947C68.9985 180.986 70.2888 180.152 71.6549 179.457C73.1844 178.8 74.7902 178.336 76.4349 178.077C77.8702 177.889 79.3209 177.845 80.7649 177.947C82.7441 178.111 84.6108 178.935 86.0649 180.287C85.4639 180.42 84.8349 180.32 84.3049 180.007C81.6377 178.937 78.7223 178.643 75.8949 179.157C73.4611 179.57 71.1665 180.576 69.2149 182.087C67.388 183.396 65.807 185.018 64.5449 186.877C61.9326 190.674 60.8602 195.32 61.5449 199.877C61.9564 202.781 63.3716 205.449 65.5449 207.417C66.9913 208.812 68.7361 209.859 70.6471 210.479C72.5581 211.099 74.5852 211.277 76.5749 210.997C78.284 210.801 79.963 210.398 81.5749 209.797C83.315 209.048 84.9016 207.983 86.2549 206.657C87.1049 205.907 87.8649 205.047 88.6649 204.237L89.1949 203.727L89.3549 203.897ZM86.6349 127.147C86.7977 127.422 86.9446 127.706 87.0749 127.997C87.3733 129.051 87.7683 130.076 88.2549 131.057C89.9949 133.847 90.9149 133.537 92.5849 131.307C92.8349 130.967 93.0349 130.587 93.3249 130.117C93.1647 131.58 92.5925 132.967 91.6749 134.117C91.5078 134.359 91.281 134.553 91.0166 134.681C90.7522 134.809 90.4591 134.866 90.1661 134.847C89.873 134.827 89.5899 134.733 89.3444 134.572C89.0988 134.411 88.8992 134.189 88.7649 133.927C88.0367 132.818 87.4489 131.622 87.0149 130.367C86.7078 129.349 86.4772 128.31 86.3249 127.257L86.6349 127.147Z" fill="white"/>
</g>
</svg>
